<mxfile host="app.diagrams.net" agent="Mozilla/5.0 (Windows NT 10.0; Win64; x64) AppleWebKit/537.36 (KHTML, like Gecko) Chrome/128.0.0.0 Safari/537.36" version="24.7.14">
  <diagram name="Page-1" id="s6kkZkNIa2T47F_F3Psr">
    <mxGraphModel dx="1290" dy="1832" grid="1" gridSize="10" guides="1" tooltips="1" connect="1" arrows="1" fold="1" page="1" pageScale="1" pageWidth="827" pageHeight="1169" math="0" shadow="0">
      <root>
        <mxCell id="0" />
        <mxCell id="1" parent="0" />
        <mxCell id="wWoEF7Os0rzFuUVPo8dV-1" value="" style="shape=image;verticalLabelPosition=bottom;labelBackgroundColor=default;verticalAlign=top;aspect=fixed;imageAspect=0;image=data:image/png,iVBORw0KGgoAAAANSUhEUgAAAT4AAACfCAMAAABX0UX9AAABIFBMVEX///8AAAD6+vpeXl4FBQU9PT3t7e1mZmaLi4t0dHRTU1NFRUXGxsapqam9vb2Hh4fe3t5Cq73n5+cAM5IuLi7T09OlpaWSkpKXrc97e3sSQJj19fUTQ5gcHBwAN5MVFRUlJSWenp7h6fNLS0tDsL+jzNsASpoeW6EiZaQla6c2NjYDO5ZsbGxiYmKHwtDs9/mmw9kvga40jLKOpMuetNO2yN/m7fVgfbQATJpQfrXP2ulHbqwcVZ8cYKSeuNR0lMCHqssAGoxWi7k0dK11iLuuuth5pMc6e65EYqjO1eeDlcMAKpG6xd05XqTV6e9+t8tOpr8elbK92+Sg09x/x9K/4eY9sb9ju8ja7/IdfKtXlruNt89kpMGw0eA3krQQg6xYGktXAAAGp0lEQVR4nO2c+1/aOhiHSxG2oZuKlykUVHSIosPjhW31tsmZbsczRXRTjrv8///FaZlg3rRN0zYF/ez7/DabpMnT5M2lZZoGAAAAAAAAAAAAAAAAAAAAAAAAAAAAAAAAAAAAAAAAAAAAAAAAGBzm1tbWzG+2d3bqg67OoyO//aZcNcrl8luLcvndtqkPukqPC700s/u2vLe3t2yzt//uAAIDYm7vl21/+zbLlYP8oCv0QPGMbnnzcHfZ9lex2D/53M9KPRo+vxFcrO8cWv5sfSuVyvt+VekRMfPhoziBfnBY2a+s2BxhGuaYKeb8nZQOGpWOwCMEQMLMh4m/pRKaB0crKw30P8LHYrX4r2Tamnl8YvnzTZdJdsm8kCp46j7H4t36KJtkyTyXrGKXkQzJPnX352RA1mens6IFmzlRrRoBVnT6znHj2C9R4h65Zo8wObqVWUgQpoQF8KRp5lmXmkkjeHT1T8VcUW7s9shvlHxSKNGnJUkjUtkAVdTXSN7V3oWhMP4Si17Pbus0l5tQvppToy89SdrwLEAFFkjOufvWh9OXSLjHINOo5qq7yudSNfq0KdoE+fA34pkxrL7EtNt9/pnI5Ypb0tWSRZE+7SVpwdyY5O112m3XmEuh9SVGnPepW0PXOPWLZMFRpU+jISwlOcVxudjBFV7fUNpxny2r8+W+yNUpCMr0ZWk/eipV2HPabhL2w+tLjPL3yX+qGkZxRqpOgVCmj49iLiPIwRjNQisQQV+Bjx2fjZxhvFU/dhXq48LfpH/4y2dIjjV6NYK+xAJ3p48ThpETHbaERaE+na7+Mr5FzZL0KS5iRdGX4u60a3U+6Q1bEBTq0/JzpA0vfUp6QZvM91ZGX+qZDGxf5soqG4ZRjeMARaU+Xoh485aeJ4n58cbqk5uH2Jpx+55Ta+wG3LDJoVSftkCMzImet04D36wjAaPPMZO6wj482pXrVugz4hi7ivVx4c/p5J5pknLVuVRTqK9k6ftSkyokIIH1sdsz59o4S0ekd5HcLs9lnCvVVzYOpcoICtsDMjIMC/Vxq785r/CXHibpHIFPU6uvWK7G8+osEQW3ndlTkmLY47ZPSKp1t4KU6jMiHLacCa4p18ed/bmfXdHN2qRr09Tqi3DY8lpwTb2+MRr+3I7fxgokifv+Tu3gNaWKcKN1LrioXh+/+XXOqdwplcf8wuibzaf9ybNdmhZVKu5KunLhVZ/1ceFv3TE06eZ43aNmjL5CSgbmoRRoUaVTn7fjAmrNfuvjVsT8noHuTVxWfL+Jsufl9oslI/xhy9lFf2OfRZrGNhr+uKWh584ugj7+tKcU4bDlvP/6uA5GZ1Y6M3ufK0TQx7/tKG1LmXKj1hyAPi78JZkrNPCteZYQQZ9jsVQPv+hrXTQHoI87Cb3vDlPEyrzgjXBofUmVH4eeN2X1DT+RgfUiqGeWnv11I1x+yPXPboTWVwj2lYOQWlNa37Sm+0PCmugx0/C3eDe/0gNm4YFqhDdtQb5yEHN5MT4uqU/BgRWLW5Cjp1SuW90eEaaOjLLhe94clD4tRZpkr17om7WCOKBHWffJfSzmz9m4xaUgQYz66M62kNX0xSBtjKIvKS5amktb31dBghj18dsLfZT82+2Mj4XRt/hUBvYQTKop/tj2xm8ECeLUp1FfGTIZiwOfpvZVUUhubHtLohSx6uM2vyzzXlvdHgoPrMLy2tZ3JUoRqz5tjK7+GPy/4Ri8vtq13flEoS9mffyb3x5+gU97CPq+2vauhW/oYtbHrZO7+H/A8RD0Xdn6hGM3dn15ulj5zbxM6wauT7fkLX0Tvx6OW5+Wdgl/Mh+vDV7fV8vekmjNrPVBn0v4kwh82gPQd2X1PZ/O1wd92gg9e5b9blyxPn0j4M/Ea1bf+yacdrW+6NPG2Pg3KbsfZfIo6X3m/slBkNeVl5Y98bxhkRrusir5o6zVXo5J2cepP+++3xh66btc7pLp3SclN9pHhu/b4rbr2FlZaRxtSP/M73rp27VvInKWJ0XgDJ1MU6NPkuuzLwKcmquv2Ual0WicHP+QKuzGshfLR1mPl43GiUW7fWz6i7mEPQe2v3b7r3b7v1vRhz8W+jXsOTGPLHsd2j83RAZvfGeNP5La7Z2/zc1fm99/ePYw/FcuHpjf2x17HX6etzBGA3J2u/nrl+2uQ/P8DAaDUW/d/rQNdvxdXDRf+0wkwMlZq/WqR2vQtQEAAAAAAAAAAAAAAAAAAAAAAAAAAAAAAAAAAAAAAAAAAAAAAAD8WfwP/FirGDD/sOUAAAAASUVORK5CYII=;" parent="1" vertex="1">
          <mxGeometry x="40" y="80" width="120" height="60" as="geometry" />
        </mxCell>
        <mxCell id="wWoEF7Os0rzFuUVPo8dV-9" style="edgeStyle=orthogonalEdgeStyle;rounded=0;orthogonalLoop=1;jettySize=auto;html=1;" parent="1" source="wWoEF7Os0rzFuUVPo8dV-2" edge="1">
          <mxGeometry relative="1" as="geometry">
            <mxPoint x="360" y="262" as="targetPoint" />
          </mxGeometry>
        </mxCell>
        <mxCell id="wWoEF7Os0rzFuUVPo8dV-2" value="" style="outlineConnect=0;dashed=0;verticalLabelPosition=bottom;verticalAlign=top;align=center;html=1;shape=mxgraph.aws3.oracle_db_instance;fillColor=#2E73B8;gradientColor=none;" parent="1" vertex="1">
          <mxGeometry x="70" y="230" width="60" height="64.5" as="geometry" />
        </mxCell>
        <mxCell id="wWoEF7Os0rzFuUVPo8dV-3" style="edgeStyle=orthogonalEdgeStyle;rounded=0;orthogonalLoop=1;jettySize=auto;html=1;entryX=0.5;entryY=0;entryDx=0;entryDy=0;entryPerimeter=0;" parent="1" source="wWoEF7Os0rzFuUVPo8dV-4" target="wWoEF7Os0rzFuUVPo8dV-2" edge="1">
          <mxGeometry relative="1" as="geometry" />
        </mxCell>
        <mxCell id="wWoEF7Os0rzFuUVPo8dV-5" value="Latency&lt;div&gt;Failure&lt;/div&gt;" style="text;html=1;align=center;verticalAlign=middle;resizable=0;points=[];autosize=1;strokeColor=none;fillColor=none;" parent="1" vertex="1">
          <mxGeometry x="40" y="170" width="70" height="40" as="geometry" />
        </mxCell>
        <mxCell id="wWoEF7Os0rzFuUVPo8dV-4" value="hvr_stats_job" style="text;html=1;align=center;verticalAlign=middle;resizable=0;points=[];autosize=1;strokeColor=none;fillColor=none;" parent="1" vertex="1">
          <mxGeometry x="55" y="133" width="90" height="30" as="geometry" />
        </mxCell>
        <mxCell id="wWoEF7Os0rzFuUVPo8dV-12" style="edgeStyle=orthogonalEdgeStyle;rounded=0;orthogonalLoop=1;jettySize=auto;html=1;" parent="1" source="wWoEF7Os0rzFuUVPo8dV-7" edge="1">
          <mxGeometry relative="1" as="geometry">
            <mxPoint x="660" y="260" as="targetPoint" />
          </mxGeometry>
        </mxCell>
        <mxCell id="wWoEF7Os0rzFuUVPo8dV-7" value="" style="shape=image;verticalLabelPosition=bottom;labelBackgroundColor=default;verticalAlign=top;aspect=fixed;imageAspect=0;image=data:image/png,iVBORw0KGgoAAAANSUhEUgAAAT4AAACfCAMAAABX0UX9AAABIFBMVEX///8AAAD6+vpeXl4FBQU9PT3t7e1mZmaLi4t0dHRTU1NFRUXGxsapqam9vb2Hh4fe3t5Cq73n5+cAM5IuLi7T09OlpaWSkpKXrc97e3sSQJj19fUTQ5gcHBwAN5MVFRUlJSWenp7h6fNLS0tDsL+jzNsASpoeW6EiZaQla6c2NjYDO5ZsbGxiYmKHwtDs9/mmw9kvga40jLKOpMuetNO2yN/m7fVgfbQATJpQfrXP2ulHbqwcVZ8cYKSeuNR0lMCHqssAGoxWi7k0dK11iLuuuth5pMc6e65EYqjO1eeDlcMAKpG6xd05XqTV6e9+t8tOpr8elbK92+Sg09x/x9K/4eY9sb9ju8ja7/IdfKtXlruNt89kpMGw0eA3krQQg6xYGktXAAAGp0lEQVR4nO2c+1/aOhiHSxG2oZuKlykUVHSIosPjhW31tsmZbsczRXRTjrv8///FaZlg3rRN0zYF/ez7/DabpMnT5M2lZZoGAAAAAAAAAAAAAAAAAAAAAAAAAAAAAAAAAAAAAAAAAAAAAAAAGBzm1tbWzG+2d3bqg67OoyO//aZcNcrl8luLcvndtqkPukqPC700s/u2vLe3t2yzt//uAAIDYm7vl21/+zbLlYP8oCv0QPGMbnnzcHfZ9lex2D/53M9KPRo+vxFcrO8cWv5sfSuVyvt+VekRMfPhoziBfnBY2a+s2BxhGuaYKeb8nZQOGpWOwCMEQMLMh4m/pRKaB0crKw30P8LHYrX4r2Tamnl8YvnzTZdJdsm8kCp46j7H4t36KJtkyTyXrGKXkQzJPnX352RA1mens6IFmzlRrRoBVnT6znHj2C9R4h65Zo8wObqVWUgQpoQF8KRp5lmXmkkjeHT1T8VcUW7s9shvlHxSKNGnJUkjUtkAVdTXSN7V3oWhMP4Si17Pbus0l5tQvppToy89SdrwLEAFFkjOufvWh9OXSLjHINOo5qq7yudSNfq0KdoE+fA34pkxrL7EtNt9/pnI5Ypb0tWSRZE+7SVpwdyY5O112m3XmEuh9SVGnPepW0PXOPWLZMFRpU+jISwlOcVxudjBFV7fUNpxny2r8+W+yNUpCMr0ZWk/eipV2HPabhL2w+tLjPL3yX+qGkZxRqpOgVCmj49iLiPIwRjNQisQQV+Bjx2fjZxhvFU/dhXq48LfpH/4y2dIjjV6NYK+xAJ3p48ThpETHbaERaE+na7+Mr5FzZL0KS5iRdGX4u60a3U+6Q1bEBTq0/JzpA0vfUp6QZvM91ZGX+qZDGxf5soqG4ZRjeMARaU+Xoh485aeJ4n58cbqk5uH2Jpx+55Ta+wG3LDJoVSftkCMzImet04D36wjAaPPMZO6wj482pXrVugz4hi7ivVx4c/p5J5pknLVuVRTqK9k6ftSkyokIIH1sdsz59o4S0ekd5HcLs9lnCvVVzYOpcoICtsDMjIMC/Vxq785r/CXHibpHIFPU6uvWK7G8+osEQW3ndlTkmLY47ZPSKp1t4KU6jMiHLacCa4p18ed/bmfXdHN2qRr09Tqi3DY8lpwTb2+MRr+3I7fxgokifv+Tu3gNaWKcKN1LrioXh+/+XXOqdwplcf8wuibzaf9ybNdmhZVKu5KunLhVZ/1ceFv3TE06eZ43aNmjL5CSgbmoRRoUaVTn7fjAmrNfuvjVsT8noHuTVxWfL+Jsufl9oslI/xhy9lFf2OfRZrGNhr+uKWh584ugj7+tKcU4bDlvP/6uA5GZ1Y6M3ufK0TQx7/tKG1LmXKj1hyAPi78JZkrNPCteZYQQZ9jsVQPv+hrXTQHoI87Cb3vDlPEyrzgjXBofUmVH4eeN2X1DT+RgfUiqGeWnv11I1x+yPXPboTWVwj2lYOQWlNa37Sm+0PCmugx0/C3eDe/0gNm4YFqhDdtQb5yEHN5MT4uqU/BgRWLW5Cjp1SuW90eEaaOjLLhe94clD4tRZpkr17om7WCOKBHWffJfSzmz9m4xaUgQYz66M62kNX0xSBtjKIvKS5amktb31dBghj18dsLfZT82+2Mj4XRt/hUBvYQTKop/tj2xm8ECeLUp1FfGTIZiwOfpvZVUUhubHtLohSx6uM2vyzzXlvdHgoPrMLy2tZ3JUoRqz5tjK7+GPy/4Ri8vtq13flEoS9mffyb3x5+gU97CPq+2vauhW/oYtbHrZO7+H/A8RD0Xdn6hGM3dn15ulj5zbxM6wauT7fkLX0Tvx6OW5+Wdgl/Mh+vDV7fV8vekmjNrPVBn0v4kwh82gPQd2X1PZ/O1wd92gg9e5b9blyxPn0j4M/Ea1bf+yacdrW+6NPG2Pg3KbsfZfIo6X3m/slBkNeVl5Y98bxhkRrusir5o6zVXo5J2cepP+++3xh66btc7pLp3SclN9pHhu/b4rbr2FlZaRxtSP/M73rp27VvInKWJ0XgDJ1MU6NPkuuzLwKcmquv2Ual0WicHP+QKuzGshfLR1mPl43GiUW7fWz6i7mEPQe2v3b7r3b7v1vRhz8W+jXsOTGPLHsd2j83RAZvfGeNP5La7Z2/zc1fm99/ePYw/FcuHpjf2x17HX6etzBGA3J2u/nrl+2uQ/P8DAaDUW/d/rQNdvxdXDRf+0wkwMlZq/WqR2vQtQEAAAAAAAAAAAAAAAAAAAAAAAAAAAAAAAAAAAAAAAAAAAAAAAD8WfwP/FirGDD/sOUAAAAASUVORK5CYII=;" parent="1" vertex="1">
          <mxGeometry x="370" y="229.75" width="120" height="60" as="geometry" />
        </mxCell>
        <mxCell id="wWoEF7Os0rzFuUVPo8dV-8" value="hvr_hub.hvr_stats" style="text;html=1;align=center;verticalAlign=middle;resizable=0;points=[];autosize=1;strokeColor=none;fillColor=none;" parent="1" vertex="1">
          <mxGeometry x="40" y="294.5" width="120" height="30" as="geometry" />
        </mxCell>
        <mxCell id="wWoEF7Os0rzFuUVPo8dV-10" value="data_viz_channel" style="text;html=1;align=center;verticalAlign=middle;resizable=0;points=[];autosize=1;strokeColor=none;fillColor=none;" parent="1" vertex="1">
          <mxGeometry x="370" y="289.75" width="120" height="30" as="geometry" />
        </mxCell>
        <mxCell id="wWoEF7Os0rzFuUVPo8dV-11" value="" style="image;aspect=fixed;perimeter=ellipsePerimeter;html=1;align=center;shadow=0;dashed=0;spacingTop=3;image=img/lib/active_directory/generic_server.svg;" parent="1" vertex="1">
          <mxGeometry x="671" y="234.75" width="28.000000000000004" height="50" as="geometry" />
        </mxCell>
        <mxCell id="wWoEF7Os0rzFuUVPo8dV-13" value="/stage/data_viz_channel/table.parquet" style="text;html=1;align=center;verticalAlign=middle;resizable=0;points=[];autosize=1;strokeColor=none;fillColor=none;" parent="1" vertex="1">
          <mxGeometry x="570" y="284.75" width="230" height="30" as="geometry" />
        </mxCell>
        <mxCell id="wWoEF7Os0rzFuUVPo8dV-14" value="HVR HUB" style="text;html=1;align=center;verticalAlign=middle;resizable=0;points=[];autosize=1;strokeColor=none;fillColor=none;fontStyle=1" parent="1" vertex="1">
          <mxGeometry x="60" y="50" width="80" height="30" as="geometry" />
        </mxCell>
        <mxCell id="wWoEF7Os0rzFuUVPo8dV-15" value="HVR HUB" style="text;html=1;align=center;verticalAlign=middle;resizable=0;points=[];autosize=1;strokeColor=none;fillColor=none;fontStyle=1" parent="1" vertex="1">
          <mxGeometry x="390" y="204.75" width="80" height="30" as="geometry" />
        </mxCell>
        <mxCell id="wWoEF7Os0rzFuUVPo8dV-16" value="FIPS Server" style="text;html=1;align=center;verticalAlign=middle;resizable=0;points=[];autosize=1;strokeColor=none;fillColor=none;fontStyle=1" parent="1" vertex="1">
          <mxGeometry x="640" y="204.75" width="90" height="30" as="geometry" />
        </mxCell>
        <mxCell id="wWoEF7Os0rzFuUVPo8dV-17" value="Capture Latency Data" style="text;html=1;align=center;verticalAlign=middle;resizable=0;points=[];autosize=1;strokeColor=none;fillColor=none;" parent="1" vertex="1">
          <mxGeometry x="175" y="234.75" width="140" height="30" as="geometry" />
        </mxCell>
        <mxCell id="wWoEF7Os0rzFuUVPo8dV-18" value="Capture Failure Data" style="text;html=1;align=center;verticalAlign=middle;resizable=0;points=[];autosize=1;strokeColor=none;fillColor=none;" parent="1" vertex="1">
          <mxGeometry x="180" y="259.75" width="130" height="30" as="geometry" />
        </mxCell>
        <mxCell id="wWoEF7Os0rzFuUVPo8dV-20" value="Upload Parquet Data" style="text;html=1;align=center;verticalAlign=middle;resizable=0;points=[];autosize=1;strokeColor=none;fillColor=none;" parent="1" vertex="1">
          <mxGeometry x="500" y="234.75" width="140" height="30" as="geometry" />
        </mxCell>
        <mxCell id="wWoEF7Os0rzFuUVPo8dV-21" value="AWS Shoreline Dev/Prod" style="points=[[0,0],[0.25,0],[0.5,0],[0.75,0],[1,0],[1,0.25],[1,0.5],[1,0.75],[1,1],[0.75,1],[0.5,1],[0.25,1],[0,1],[0,0.75],[0,0.5],[0,0.25]];outlineConnect=0;gradientColor=none;html=1;whiteSpace=wrap;fontSize=12;fontStyle=0;container=1;pointerEvents=0;collapsible=0;recursiveResize=0;shape=mxgraph.aws4.group;grIcon=mxgraph.aws4.group_account;strokeColor=#CD2264;fillColor=none;verticalAlign=top;align=left;spacingLeft=30;fontColor=#CD2264;dashed=0;" parent="1" vertex="1">
          <mxGeometry x="800" y="170" width="510" height="180" as="geometry" />
        </mxCell>
        <mxCell id="wWoEF7Os0rzFuUVPo8dV-31" style="edgeStyle=orthogonalEdgeStyle;rounded=0;orthogonalLoop=1;jettySize=auto;html=1;" parent="wWoEF7Os0rzFuUVPo8dV-21" source="wWoEF7Os0rzFuUVPo8dV-25" edge="1">
          <mxGeometry relative="1" as="geometry">
            <mxPoint x="220" y="90" as="targetPoint" />
          </mxGeometry>
        </mxCell>
        <mxCell id="wWoEF7Os0rzFuUVPo8dV-25" value="" style="sketch=0;points=[[0,0,0],[0.25,0,0],[0.5,0,0],[0.75,0,0],[1,0,0],[0,1,0],[0.25,1,0],[0.5,1,0],[0.75,1,0],[1,1,0],[0,0.25,0],[0,0.5,0],[0,0.75,0],[1,0.25,0],[1,0.5,0],[1,0.75,0]];outlineConnect=0;fontColor=#232F3E;fillColor=#7AA116;strokeColor=#ffffff;dashed=0;verticalLabelPosition=bottom;verticalAlign=top;align=center;html=1;fontSize=12;fontStyle=0;aspect=fixed;shape=mxgraph.aws4.resourceIcon;resIcon=mxgraph.aws4.s3;" parent="wWoEF7Os0rzFuUVPo8dV-21" vertex="1">
          <mxGeometry x="27" y="50.75" width="78" height="78" as="geometry" />
        </mxCell>
        <mxCell id="wWoEF7Os0rzFuUVPo8dV-27" value="S3 Stage" style="text;html=1;align=center;verticalAlign=middle;resizable=0;points=[];autosize=1;strokeColor=none;fillColor=none;" parent="wWoEF7Os0rzFuUVPo8dV-21" vertex="1">
          <mxGeometry x="31" y="124.5" width="70" height="30" as="geometry" />
        </mxCell>
        <mxCell id="wWoEF7Os0rzFuUVPo8dV-47" style="edgeStyle=orthogonalEdgeStyle;rounded=0;orthogonalLoop=1;jettySize=auto;html=1;" parent="wWoEF7Os0rzFuUVPo8dV-21" source="wWoEF7Os0rzFuUVPo8dV-28" edge="1">
          <mxGeometry relative="1" as="geometry">
            <mxPoint x="570" y="89.74999999999989" as="targetPoint" />
          </mxGeometry>
        </mxCell>
        <mxCell id="wWoEF7Os0rzFuUVPo8dV-28" value="" style="sketch=0;points=[[0,0,0],[0.25,0,0],[0.5,0,0],[0.75,0,0],[1,0,0],[0,1,0],[0.25,1,0],[0.5,1,0],[0.75,1,0],[1,1,0],[0,0.25,0],[0,0.5,0],[0,0.75,0],[1,0.25,0],[1,0.5,0],[1,0.75,0]];outlineConnect=0;fontColor=#232F3E;fillColor=#7AA116;strokeColor=#ffffff;dashed=0;verticalLabelPosition=bottom;verticalAlign=top;align=center;html=1;fontSize=12;fontStyle=0;aspect=fixed;shape=mxgraph.aws4.resourceIcon;resIcon=mxgraph.aws4.s3;" parent="wWoEF7Os0rzFuUVPo8dV-21" vertex="1">
          <mxGeometry x="410" y="50.75" width="78" height="78" as="geometry" />
        </mxCell>
        <mxCell id="wWoEF7Os0rzFuUVPo8dV-29" value="S3 Base" style="text;html=1;align=center;verticalAlign=middle;resizable=0;points=[];autosize=1;strokeColor=none;fillColor=none;fontStyle=1" parent="wWoEF7Os0rzFuUVPo8dV-21" vertex="1">
          <mxGeometry x="414" y="124.5" width="70" height="30" as="geometry" />
        </mxCell>
        <mxCell id="wWoEF7Os0rzFuUVPo8dV-30" value="Amazon EMR" style="sketch=0;outlineConnect=0;fontColor=#232F3E;gradientColor=none;strokeColor=#ffffff;fillColor=#232F3E;dashed=0;verticalLabelPosition=middle;verticalAlign=bottom;align=center;html=1;whiteSpace=wrap;fontSize=10;fontStyle=1;spacing=3;shape=mxgraph.aws4.productIcon;prIcon=mxgraph.aws4.emr;" parent="wWoEF7Os0rzFuUVPo8dV-21" vertex="1">
          <mxGeometry x="230" y="50.75" width="80" height="100" as="geometry" />
        </mxCell>
        <mxCell id="wWoEF7Os0rzFuUVPo8dV-32" style="edgeStyle=orthogonalEdgeStyle;rounded=0;orthogonalLoop=1;jettySize=auto;html=1;entryX=0;entryY=0.5;entryDx=0;entryDy=0;entryPerimeter=0;" parent="wWoEF7Os0rzFuUVPo8dV-21" target="wWoEF7Os0rzFuUVPo8dV-28" edge="1">
          <mxGeometry relative="1" as="geometry">
            <mxPoint x="320" y="90" as="sourcePoint" />
          </mxGeometry>
        </mxCell>
        <mxCell id="wWoEF7Os0rzFuUVPo8dV-26" style="edgeStyle=orthogonalEdgeStyle;rounded=0;orthogonalLoop=1;jettySize=auto;html=1;entryX=0;entryY=0.5;entryDx=0;entryDy=0;entryPerimeter=0;" parent="1" source="wWoEF7Os0rzFuUVPo8dV-11" target="wWoEF7Os0rzFuUVPo8dV-25" edge="1">
          <mxGeometry relative="1" as="geometry" />
        </mxCell>
        <mxCell id="wWoEF7Os0rzFuUVPo8dV-50" style="edgeStyle=orthogonalEdgeStyle;rounded=0;orthogonalLoop=1;jettySize=auto;html=1;entryX=-0.03;entryY=0.646;entryDx=0;entryDy=0;entryPerimeter=0;" parent="1" edge="1">
          <mxGeometry relative="1" as="geometry">
            <mxPoint x="1520" y="264.88038000000006" as="targetPoint" />
            <mxPoint x="1453.3" y="264.75" as="sourcePoint" />
          </mxGeometry>
        </mxCell>
        <mxCell id="wWoEF7Os0rzFuUVPo8dV-33" value="" style="outlineConnect=0;dashed=0;verticalLabelPosition=bottom;verticalAlign=top;align=center;html=1;shape=mxgraph.aws3.redshift;fillColor=#2E73B8;gradientColor=none;" parent="1" vertex="1">
          <mxGeometry x="1380" y="223" width="67.5" height="75" as="geometry" />
        </mxCell>
        <mxCell id="wWoEF7Os0rzFuUVPo8dV-34" value="schema_name.hvr_stats_data" style="text;html=1;align=center;verticalAlign=middle;resizable=0;points=[];autosize=1;strokeColor=none;fillColor=none;" parent="1" vertex="1">
          <mxGeometry x="1323.75" y="298" width="180" height="30" as="geometry" />
        </mxCell>
        <mxCell id="wWoEF7Os0rzFuUVPo8dV-35" value="Redshift Datalake" style="text;html=1;align=center;verticalAlign=middle;resizable=0;points=[];autosize=1;strokeColor=none;fillColor=none;fontStyle=1" parent="1" vertex="1">
          <mxGeometry x="1353.75" y="193" width="120" height="30" as="geometry" />
        </mxCell>
        <mxCell id="wWoEF7Os0rzFuUVPo8dV-49" style="edgeStyle=orthogonalEdgeStyle;rounded=0;orthogonalLoop=1;jettySize=auto;html=1;" parent="1" source="wWoEF7Os0rzFuUVPo8dV-36" edge="1">
          <mxGeometry relative="1" as="geometry">
            <mxPoint x="1450" y="260" as="targetPoint" />
          </mxGeometry>
        </mxCell>
        <mxCell id="wWoEF7Os0rzFuUVPo8dV-36" value="" style="shape=image;verticalLabelPosition=bottom;labelBackgroundColor=default;verticalAlign=top;aspect=fixed;imageAspect=0;image=data:image/jpeg,/9j/4AAQSkZJRgABAQAAAQABAAD/2wCEAAkGBwgHBgkIBwgKCgkLDRYPDQwMDRsUFRAWIB0iIiAdHx8kKDQsJCYxJx8fLT0tMTU3Ojo6Iys/RD84QzQ5OjcBCgoKDQwNGg8PGjclHyU3Nzc3Nzc3Nzc3Nzc3Nzc3Nzc3Nzc3Nzc3Nzc3Nzc3Nzc3Nzc3Nzc3Nzc3Nzc3Nzc3N//AABEIAKAAqgMBIgACEQEDEQH/xAAbAAEBAAMAAwAAAAAAAAAAAAAABQMEBgECB//EAEAQAAEEAgAEAwUEBQoHAAAAAAEAAgMEBREGEiExE0FRBxRhcaEzgbHBIjI2dJEVFhdTc5Oy0eHwIzQ1Q1Jicv/EABkBAQADAQEAAAAAAAAAAAAAAAABAwUEAv/EACQRAQACAgAGAgMBAAAAAAAAAAABAgMRBBITITFBUfFhceHR/9oADAMBAAIRAxEAPwD7iiIgIiICIiAiIgIiICIiAiIgIiICIiAiIgIiICIiAiIgIiICIiAiIgIiICIiAiIgIiICIiAiIgIiICIiAiIgIiICIiAiIgIiICIiAiIgIiICIiAiIgwXrUdGnNan34cLC93KNnQXN/0gYP1s/wB1/quqIBGiAR6FROMI428M5AtjYD4XcNHqFfg6c2it43uflz5+rFZtSdaj4aH9IGD9bP8Adf6qpa4io1aVO5L4vg3NeFpnXqN9Vj4Sijdw1ji6NhJhG9tCk+0UAVsYAAB712HyKujHhvmjHETHeff8UzkzVw9SZie0ev6v5vNVMJBHPd8TkkfyDkbvrrf5KQ3j7BlwBdYaPUxLX9pRAo44uIDRbBO/kVXu5vh8VpPeLlKWPR2wOa8n7h3SmKnTraazMzvx9Jvlv1LVi0REa8/anSuV71ZlinM2WF/ZzSp2Z4lxuHkENmVz5yNiGJvM74fJQ+ERPiOHspflhfDAXPmrxSd+UDp/Hos/AWOY+kczbHi3bb3O8V/UtG9dPTrv6KJwY6Ta1p3ETr9lc+TJFa1jVpjf6hkj46xoe1tutdqhx6Oli6fQq/cyFSjT97tTtjg0CHO899tD1WaeCGzEYrETJYz3a9oIXyz2jZGS1nHUw4+BVAa1o7cxAJP5fcpwYacRkitY18+0Z82Thsc2tO/jtp00ntExLZuRkFp7f/MNA+m10eMy1PKRF1OUOc0fpRu6Ob8wvleMw7oA2a3qOdzPFYxw34MY7yvH+EeZI+/Fg8xJT4jhtw7ZE6QMdHvvGemj931XZk4DFaJ6XmHHj4/LW0dXxL67Xtull8N0D2HW9nstpEWPOvTZgREUJEREBERAREQFG4y/ZjI/2X5hWVqZWizJY+elK9zGTN5S5vcL3itFbxM/KvLWbY7Vj3DS4Q/ZnHf2IUf2jf8AL4z96/JdNjKTMdj4KcbnPZCzlDndytXPYSHNR12TyyRiGTxBya6nXxV+PLWvEc8+NypyYrW4fkjzqEL2ltDqGOa4bBtgEfcVUl4QwD2OBx7G782vcCPqs/EWChz1aKCeaSIRSc4Met71rz+akfzErP6S5TISMPdpkHX6KymWvSrXnmsxtXfFbq2tyRaJ1500uHRNercQYSOw6xUiBjrSvdvW+YAb9OgW/wCz3IMkxAx0p5LdNzmOid0Otk/5hXsTiqeIqitRi5Gb2STsuPqSp2Z4Vo5O174x8tW5/XQHRPxPx+KWzY8k2rPaJ1O/z/SuDJjito7zG4mPxP8Ai497I2F8jmta3qXOOgFxecosr58vxuNfcydweI2aYbhgHbmHxGt9fgto8F+8OaMnmb9uJp+zc/QP1K6WerHPTfUcXtjczkJY4g6+arremGd1tvfn093pfNXVq6149/T5LxHejhbJjatg2Xvfz3rZ/wC/IPIf+o8vitLhjHyZPN1a8bdgPD3nXRrR1JXbP9m9EybbfsBm/wBUtBP8V0uEwVDCQllKIhzv15HnbnfMrQvx2KmLlx95Z1OAzZMvNk7QpoiLFbgiIgIiICIiAiIgKLkOJ8dRsurDxrM7P1460fOW/PyVh4JY4NOna6H0K47g7JUcbDYx+Re2rkBO4yGbp4m+x5kFzGcR43JTeBDK6Of+qmbyOPy9VXWr7tStTRXBFDLLHvw5gASPkVN4hz38i3KDHxh0Ngv8QgEuGgNBoHmdoLiLnH3OKHt95hx9NsWtis+Q+KR8+21RwOYizFMysYYpY3Fk0Lu7HDyQUkXOz5u/evTU8BWilEB5ZbM7iIw70Gu69G53IY23DX4gqxMindystVyeTm9CD2QXrtyvRrusW5WxRN1tzuw2swIcAQdg9lyntENz+RJGxshNT9Eyuc484PMNaCqYiTNukY3IV6TK/J0dC9xdvy7oPOYzrMfZipwVZrluRvMIYR1DfUleLGdbUxcN25StRmR/IYAzme09e/w6fVc9FLnP54WnR1qPvfuo5mukdyBux13332VvLZe/isPBZs16/vT52xvY1xLACT1B+QQXkUnibLSYbHssxMY8umaw85IAB31WtRy+SyWRY6lRa3FBxBsyHTpB16tHptBfRQslmrTskcZhazJ7TG800kh1HED236lYWZjJ423BBn69cQzu5GWqxPKHeQcD2QW7NoQPa0sLub0PZbAOxtermNdrmaDrtsdl7ICIiAiIg8Oc1jS5xDWgbJJ6ALRnqYzM12SSxQWonD9GToenwIW89rXtLHtDmuGiCNghc7Jwo2GZ8mIyNrHh526KM8zN/JBOyWPj4YyNC1iJJI47NgRS1S8ua8HzG/8AfZbXFksMOf4ekskCNsz9l3YH9HR/jpbuO4bZXvMvX7s9+1GNRumP6LPkFp8VwxWc/gIJ2NkjkfK1zXdiNBB1K5Xh8GbiDiKaqf8Aguc1jXDsXgHevv8AxWZ3DFkMNeDO3o6nbwu5A9A7urOMx1bF02VabOSNvr1JPqT6oIfs+cwYJ0B6WIp3iZp7h2/P7vwWXj18I4dlilAdJK9jYW+ZdzDt921myPDjLF436Fuahbf9o+Hs/wCYXijw2yO6y7krk+QsR/ZmXo2P4hqDT41a9nBjmy/aARB3z2Nrpa/2Ef8A8D8FhydGHJ0ZqdkExyjR13HmCPvWhhsLZxswdLlrNqJjORkUnRrR+aDSq/t/d/cm/iE4/wD+j1/3uP8ANVY8UyPOTZUSuL5YREY9dBrz+iZzFMzFRleSV0QZK2TmaN9vL6oJPtCaH4OJp7OtRj8V0kUbIYmRRtDWMaGtA8gFo5zFMzFRleSV0QbK2TmaN9vJUUHEYmHKOzebipX4K03vPM5ssPO5zTvlPy/z+K3cpg83kqhrXMtVMbnA9K+jsHpo7VPL4GHIWGW4Z5ad1g0J4TokehHmFrw8NySWYpstlLN4RHmjjcORgd6kDugvMBDGhx2QOp9V5REBERAREQEREBero2Pc1z2Nc5vVpI2R8l7IgIiICIiAiIgIiICIiAiIgIiICIiAiIgIiICIiAiIgIiICIiAiIgIiICIiAiIgIiICIiAiIgIiICIiAiIgIiICIiAiIgIiICIiAiIg//Z;" parent="1" vertex="1">
          <mxGeometry x="1520" y="207.98" width="110" height="103.53" as="geometry" />
        </mxCell>
        <mxCell id="wWoEF7Os0rzFuUVPo8dV-37" value="" style="image;aspect=fixed;html=1;points=[];align=center;fontSize=12;image=img/lib/azure2/general/Dashboard2.svg;" parent="1" vertex="1">
          <mxGeometry x="1620" y="238.25" width="68" height="48" as="geometry" />
        </mxCell>
        <mxCell id="wWoEF7Os0rzFuUVPo8dV-38" value="Shoreline Ingestion" style="text;html=1;align=center;verticalAlign=middle;resizable=0;points=[];autosize=1;strokeColor=none;fillColor=none;fontStyle=1;fontSize=15;" parent="1" vertex="1">
          <mxGeometry x="980" y="133" width="150" height="30" as="geometry" />
        </mxCell>
        <mxCell id="wWoEF7Os0rzFuUVPo8dV-51" value="Spotfire Dashboard" style="text;html=1;align=center;verticalAlign=middle;resizable=0;points=[];autosize=1;strokeColor=none;fillColor=none;fontStyle=1" parent="1" vertex="1">
          <mxGeometry x="1545" y="193" width="130" height="30" as="geometry" />
        </mxCell>
        <mxCell id="wWoEF7Os0rzFuUVPo8dV-52" value="Oracle HVR Metadata&lt;div&gt;Database&lt;/div&gt;" style="text;html=1;align=center;verticalAlign=middle;resizable=0;points=[];autosize=1;strokeColor=none;fillColor=none;fontStyle=1" parent="1" vertex="1">
          <mxGeometry x="30" y="314.75" width="140" height="40" as="geometry" />
        </mxCell>
        <mxCell id="wWoEF7Os0rzFuUVPo8dV-53" value="" style="shape=image;verticalLabelPosition=bottom;labelBackgroundColor=default;verticalAlign=top;aspect=fixed;imageAspect=0;image=data:image/png,iVBORw0KGgoAAAANSUhEUgAAAT4AAACfCAMAAABX0UX9AAABIFBMVEX///8AAAD6+vpeXl4FBQU9PT3t7e1mZmaLi4t0dHRTU1NFRUXGxsapqam9vb2Hh4fe3t5Cq73n5+cAM5IuLi7T09OlpaWSkpKXrc97e3sSQJj19fUTQ5gcHBwAN5MVFRUlJSWenp7h6fNLS0tDsL+jzNsASpoeW6EiZaQla6c2NjYDO5ZsbGxiYmKHwtDs9/mmw9kvga40jLKOpMuetNO2yN/m7fVgfbQATJpQfrXP2ulHbqwcVZ8cYKSeuNR0lMCHqssAGoxWi7k0dK11iLuuuth5pMc6e65EYqjO1eeDlcMAKpG6xd05XqTV6e9+t8tOpr8elbK92+Sg09x/x9K/4eY9sb9ju8ja7/IdfKtXlruNt89kpMGw0eA3krQQg6xYGktXAAAGp0lEQVR4nO2c+1/aOhiHSxG2oZuKlykUVHSIosPjhW31tsmZbsczRXRTjrv8///FaZlg3rRN0zYF/ez7/DabpMnT5M2lZZoGAAAAAAAAAAAAAAAAAAAAAAAAAAAAAAAAAAAAAAAAAAAAAAAAGBzm1tbWzG+2d3bqg67OoyO//aZcNcrl8luLcvndtqkPukqPC700s/u2vLe3t2yzt//uAAIDYm7vl21/+zbLlYP8oCv0QPGMbnnzcHfZ9lex2D/53M9KPRo+vxFcrO8cWv5sfSuVyvt+VekRMfPhoziBfnBY2a+s2BxhGuaYKeb8nZQOGpWOwCMEQMLMh4m/pRKaB0crKw30P8LHYrX4r2Tamnl8YvnzTZdJdsm8kCp46j7H4t36KJtkyTyXrGKXkQzJPnX352RA1mens6IFmzlRrRoBVnT6znHj2C9R4h65Zo8wObqVWUgQpoQF8KRp5lmXmkkjeHT1T8VcUW7s9shvlHxSKNGnJUkjUtkAVdTXSN7V3oWhMP4Si17Pbus0l5tQvppToy89SdrwLEAFFkjOufvWh9OXSLjHINOo5qq7yudSNfq0KdoE+fA34pkxrL7EtNt9/pnI5Ypb0tWSRZE+7SVpwdyY5O112m3XmEuh9SVGnPepW0PXOPWLZMFRpU+jISwlOcVxudjBFV7fUNpxny2r8+W+yNUpCMr0ZWk/eipV2HPabhL2w+tLjPL3yX+qGkZxRqpOgVCmj49iLiPIwRjNQisQQV+Bjx2fjZxhvFU/dhXq48LfpH/4y2dIjjV6NYK+xAJ3p48ThpETHbaERaE+na7+Mr5FzZL0KS5iRdGX4u60a3U+6Q1bEBTq0/JzpA0vfUp6QZvM91ZGX+qZDGxf5soqG4ZRjeMARaU+Xoh485aeJ4n58cbqk5uH2Jpx+55Ta+wG3LDJoVSftkCMzImet04D36wjAaPPMZO6wj482pXrVugz4hi7ivVx4c/p5J5pknLVuVRTqK9k6ftSkyokIIH1sdsz59o4S0ekd5HcLs9lnCvVVzYOpcoICtsDMjIMC/Vxq785r/CXHibpHIFPU6uvWK7G8+osEQW3ndlTkmLY47ZPSKp1t4KU6jMiHLacCa4p18ed/bmfXdHN2qRr09Tqi3DY8lpwTb2+MRr+3I7fxgokifv+Tu3gNaWKcKN1LrioXh+/+XXOqdwplcf8wuibzaf9ybNdmhZVKu5KunLhVZ/1ceFv3TE06eZ43aNmjL5CSgbmoRRoUaVTn7fjAmrNfuvjVsT8noHuTVxWfL+Jsufl9oslI/xhy9lFf2OfRZrGNhr+uKWh584ugj7+tKcU4bDlvP/6uA5GZ1Y6M3ufK0TQx7/tKG1LmXKj1hyAPi78JZkrNPCteZYQQZ9jsVQPv+hrXTQHoI87Cb3vDlPEyrzgjXBofUmVH4eeN2X1DT+RgfUiqGeWnv11I1x+yPXPboTWVwj2lYOQWlNa37Sm+0PCmugx0/C3eDe/0gNm4YFqhDdtQb5yEHN5MT4uqU/BgRWLW5Cjp1SuW90eEaaOjLLhe94clD4tRZpkr17om7WCOKBHWffJfSzmz9m4xaUgQYz66M62kNX0xSBtjKIvKS5amktb31dBghj18dsLfZT82+2Mj4XRt/hUBvYQTKop/tj2xm8ECeLUp1FfGTIZiwOfpvZVUUhubHtLohSx6uM2vyzzXlvdHgoPrMLy2tZ3JUoRqz5tjK7+GPy/4Ri8vtq13flEoS9mffyb3x5+gU97CPq+2vauhW/oYtbHrZO7+H/A8RD0Xdn6hGM3dn15ulj5zbxM6wauT7fkLX0Tvx6OW5+Wdgl/Mh+vDV7fV8vekmjNrPVBn0v4kwh82gPQd2X1PZ/O1wd92gg9e5b9blyxPn0j4M/Ea1bf+yacdrW+6NPG2Pg3KbsfZfIo6X3m/slBkNeVl5Y98bxhkRrusir5o6zVXo5J2cepP+++3xh66btc7pLp3SclN9pHhu/b4rbr2FlZaRxtSP/M73rp27VvInKWJ0XgDJ1MU6NPkuuzLwKcmquv2Ual0WicHP+QKuzGshfLR1mPl43GiUW7fWz6i7mEPQe2v3b7r3b7v1vRhz8W+jXsOTGPLHsd2j83RAZvfGeNP5La7Z2/zc1fm99/ePYw/FcuHpjf2x17HX6etzBGA3J2u/nrl+2uQ/P8DAaDUW/d/rQNdvxdXDRf+0wkwMlZq/WqR2vQtQEAAAAAAAAAAAAAAAAAAAAAAAAAAAAAAAAAAAAAAAAAAAAAAAD8WfwP/FirGDD/sOUAAAAASUVORK5CYII=;" parent="1" vertex="1">
          <mxGeometry x="39" y="-340" width="120" height="60" as="geometry" />
        </mxCell>
        <mxCell id="wWoEF7Os0rzFuUVPo8dV-54" style="edgeStyle=orthogonalEdgeStyle;rounded=0;orthogonalLoop=1;jettySize=auto;html=1;" parent="1" source="wWoEF7Os0rzFuUVPo8dV-55" edge="1">
          <mxGeometry relative="1" as="geometry">
            <mxPoint x="359" y="-158" as="targetPoint" />
          </mxGeometry>
        </mxCell>
        <mxCell id="wWoEF7Os0rzFuUVPo8dV-55" value="" style="outlineConnect=0;dashed=0;verticalLabelPosition=bottom;verticalAlign=top;align=center;html=1;shape=mxgraph.aws3.oracle_db_instance;fillColor=#2E73B8;gradientColor=none;" parent="1" vertex="1">
          <mxGeometry x="69" y="-190" width="60" height="64.5" as="geometry" />
        </mxCell>
        <mxCell id="wWoEF7Os0rzFuUVPo8dV-56" style="edgeStyle=orthogonalEdgeStyle;rounded=0;orthogonalLoop=1;jettySize=auto;html=1;entryX=0.5;entryY=0;entryDx=0;entryDy=0;entryPerimeter=0;" parent="1" source="wWoEF7Os0rzFuUVPo8dV-58" target="wWoEF7Os0rzFuUVPo8dV-55" edge="1">
          <mxGeometry relative="1" as="geometry" />
        </mxCell>
        <mxCell id="wWoEF7Os0rzFuUVPo8dV-57" value="Latency&lt;div&gt;Failure&lt;/div&gt;" style="text;html=1;align=center;verticalAlign=middle;resizable=0;points=[];autosize=1;strokeColor=none;fillColor=none;" parent="1" vertex="1">
          <mxGeometry x="39" y="-250" width="70" height="40" as="geometry" />
        </mxCell>
        <mxCell id="wWoEF7Os0rzFuUVPo8dV-58" value="hvr_stats_job" style="text;html=1;align=center;verticalAlign=middle;resizable=0;points=[];autosize=1;strokeColor=none;fillColor=none;" parent="1" vertex="1">
          <mxGeometry x="54" y="-287" width="90" height="30" as="geometry" />
        </mxCell>
        <mxCell id="wWoEF7Os0rzFuUVPo8dV-59" style="edgeStyle=orthogonalEdgeStyle;rounded=0;orthogonalLoop=1;jettySize=auto;html=1;" parent="1" source="wWoEF7Os0rzFuUVPo8dV-60" edge="1">
          <mxGeometry relative="1" as="geometry">
            <mxPoint x="659" y="-160" as="targetPoint" />
          </mxGeometry>
        </mxCell>
        <mxCell id="wWoEF7Os0rzFuUVPo8dV-60" value="" style="shape=image;verticalLabelPosition=bottom;labelBackgroundColor=default;verticalAlign=top;aspect=fixed;imageAspect=0;image=data:image/png,iVBORw0KGgoAAAANSUhEUgAAAT4AAACfCAMAAABX0UX9AAABIFBMVEX///8AAAD6+vpeXl4FBQU9PT3t7e1mZmaLi4t0dHRTU1NFRUXGxsapqam9vb2Hh4fe3t5Cq73n5+cAM5IuLi7T09OlpaWSkpKXrc97e3sSQJj19fUTQ5gcHBwAN5MVFRUlJSWenp7h6fNLS0tDsL+jzNsASpoeW6EiZaQla6c2NjYDO5ZsbGxiYmKHwtDs9/mmw9kvga40jLKOpMuetNO2yN/m7fVgfbQATJpQfrXP2ulHbqwcVZ8cYKSeuNR0lMCHqssAGoxWi7k0dK11iLuuuth5pMc6e65EYqjO1eeDlcMAKpG6xd05XqTV6e9+t8tOpr8elbK92+Sg09x/x9K/4eY9sb9ju8ja7/IdfKtXlruNt89kpMGw0eA3krQQg6xYGktXAAAGp0lEQVR4nO2c+1/aOhiHSxG2oZuKlykUVHSIosPjhW31tsmZbsczRXRTjrv8///FaZlg3rRN0zYF/ez7/DabpMnT5M2lZZoGAAAAAAAAAAAAAAAAAAAAAAAAAAAAAAAAAAAAAAAAAAAAAAAAGBzm1tbWzG+2d3bqg67OoyO//aZcNcrl8luLcvndtqkPukqPC700s/u2vLe3t2yzt//uAAIDYm7vl21/+zbLlYP8oCv0QPGMbnnzcHfZ9lex2D/53M9KPRo+vxFcrO8cWv5sfSuVyvt+VekRMfPhoziBfnBY2a+s2BxhGuaYKeb8nZQOGpWOwCMEQMLMh4m/pRKaB0crKw30P8LHYrX4r2Tamnl8YvnzTZdJdsm8kCp46j7H4t36KJtkyTyXrGKXkQzJPnX352RA1mens6IFmzlRrRoBVnT6znHj2C9R4h65Zo8wObqVWUgQpoQF8KRp5lmXmkkjeHT1T8VcUW7s9shvlHxSKNGnJUkjUtkAVdTXSN7V3oWhMP4Si17Pbus0l5tQvppToy89SdrwLEAFFkjOufvWh9OXSLjHINOo5qq7yudSNfq0KdoE+fA34pkxrL7EtNt9/pnI5Ypb0tWSRZE+7SVpwdyY5O112m3XmEuh9SVGnPepW0PXOPWLZMFRpU+jISwlOcVxudjBFV7fUNpxny2r8+W+yNUpCMr0ZWk/eipV2HPabhL2w+tLjPL3yX+qGkZxRqpOgVCmj49iLiPIwRjNQisQQV+Bjx2fjZxhvFU/dhXq48LfpH/4y2dIjjV6NYK+xAJ3p48ThpETHbaERaE+na7+Mr5FzZL0KS5iRdGX4u60a3U+6Q1bEBTq0/JzpA0vfUp6QZvM91ZGX+qZDGxf5soqG4ZRjeMARaU+Xoh485aeJ4n58cbqk5uH2Jpx+55Ta+wG3LDJoVSftkCMzImet04D36wjAaPPMZO6wj482pXrVugz4hi7ivVx4c/p5J5pknLVuVRTqK9k6ftSkyokIIH1sdsz59o4S0ekd5HcLs9lnCvVVzYOpcoICtsDMjIMC/Vxq785r/CXHibpHIFPU6uvWK7G8+osEQW3ndlTkmLY47ZPSKp1t4KU6jMiHLacCa4p18ed/bmfXdHN2qRr09Tqi3DY8lpwTb2+MRr+3I7fxgokifv+Tu3gNaWKcKN1LrioXh+/+XXOqdwplcf8wuibzaf9ybNdmhZVKu5KunLhVZ/1ceFv3TE06eZ43aNmjL5CSgbmoRRoUaVTn7fjAmrNfuvjVsT8noHuTVxWfL+Jsufl9oslI/xhy9lFf2OfRZrGNhr+uKWh584ugj7+tKcU4bDlvP/6uA5GZ1Y6M3ufK0TQx7/tKG1LmXKj1hyAPi78JZkrNPCteZYQQZ9jsVQPv+hrXTQHoI87Cb3vDlPEyrzgjXBofUmVH4eeN2X1DT+RgfUiqGeWnv11I1x+yPXPboTWVwj2lYOQWlNa37Sm+0PCmugx0/C3eDe/0gNm4YFqhDdtQb5yEHN5MT4uqU/BgRWLW5Cjp1SuW90eEaaOjLLhe94clD4tRZpkr17om7WCOKBHWffJfSzmz9m4xaUgQYz66M62kNX0xSBtjKIvKS5amktb31dBghj18dsLfZT82+2Mj4XRt/hUBvYQTKop/tj2xm8ECeLUp1FfGTIZiwOfpvZVUUhubHtLohSx6uM2vyzzXlvdHgoPrMLy2tZ3JUoRqz5tjK7+GPy/4Ri8vtq13flEoS9mffyb3x5+gU97CPq+2vauhW/oYtbHrZO7+H/A8RD0Xdn6hGM3dn15ulj5zbxM6wauT7fkLX0Tvx6OW5+Wdgl/Mh+vDV7fV8vekmjNrPVBn0v4kwh82gPQd2X1PZ/O1wd92gg9e5b9blyxPn0j4M/Ea1bf+yacdrW+6NPG2Pg3KbsfZfIo6X3m/slBkNeVl5Y98bxhkRrusir5o6zVXo5J2cepP+++3xh66btc7pLp3SclN9pHhu/b4rbr2FlZaRxtSP/M73rp27VvInKWJ0XgDJ1MU6NPkuuzLwKcmquv2Ual0WicHP+QKuzGshfLR1mPl43GiUW7fWz6i7mEPQe2v3b7r3b7v1vRhz8W+jXsOTGPLHsd2j83RAZvfGeNP5La7Z2/zc1fm99/ePYw/FcuHpjf2x17HX6etzBGA3J2u/nrl+2uQ/P8DAaDUW/d/rQNdvxdXDRf+0wkwMlZq/WqR2vQtQEAAAAAAAAAAAAAAAAAAAAAAAAAAAAAAAAAAAAAAAAAAAAAAAD8WfwP/FirGDD/sOUAAAAASUVORK5CYII=;" parent="1" vertex="1">
          <mxGeometry x="369" y="-190.25" width="120" height="60" as="geometry" />
        </mxCell>
        <mxCell id="wWoEF7Os0rzFuUVPo8dV-61" value="hvr_hub.hvr_stats" style="text;html=1;align=center;verticalAlign=middle;resizable=0;points=[];autosize=1;strokeColor=none;fillColor=none;" parent="1" vertex="1">
          <mxGeometry x="39" y="-125.5" width="120" height="30" as="geometry" />
        </mxCell>
        <mxCell id="wWoEF7Os0rzFuUVPo8dV-62" value="data_viz_channel" style="text;html=1;align=center;verticalAlign=middle;resizable=0;points=[];autosize=1;strokeColor=none;fillColor=none;" parent="1" vertex="1">
          <mxGeometry x="369" y="-130.25" width="120" height="30" as="geometry" />
        </mxCell>
        <mxCell id="wWoEF7Os0rzFuUVPo8dV-63" value="" style="image;aspect=fixed;perimeter=ellipsePerimeter;html=1;align=center;shadow=0;dashed=0;spacingTop=3;image=img/lib/active_directory/generic_server.svg;" parent="1" vertex="1">
          <mxGeometry x="670" y="-185.25" width="28.000000000000004" height="50" as="geometry" />
        </mxCell>
        <mxCell id="wWoEF7Os0rzFuUVPo8dV-64" value="/stage/data_viz_channel/table.csv" style="text;html=1;align=center;verticalAlign=middle;resizable=0;points=[];autosize=1;strokeColor=none;fillColor=none;" parent="1" vertex="1">
          <mxGeometry x="584" y="-135.25" width="200" height="30" as="geometry" />
        </mxCell>
        <mxCell id="wWoEF7Os0rzFuUVPo8dV-65" value="HVR HUB" style="text;html=1;align=center;verticalAlign=middle;resizable=0;points=[];autosize=1;strokeColor=none;fillColor=none;fontStyle=1" parent="1" vertex="1">
          <mxGeometry x="59" y="-370" width="80" height="30" as="geometry" />
        </mxCell>
        <mxCell id="wWoEF7Os0rzFuUVPo8dV-66" value="HVR HUB" style="text;html=1;align=center;verticalAlign=middle;resizable=0;points=[];autosize=1;strokeColor=none;fillColor=none;fontStyle=1" parent="1" vertex="1">
          <mxGeometry x="389" y="-215.25" width="80" height="30" as="geometry" />
        </mxCell>
        <mxCell id="wWoEF7Os0rzFuUVPo8dV-67" value="FIPS Server" style="text;html=1;align=center;verticalAlign=middle;resizable=0;points=[];autosize=1;strokeColor=none;fillColor=none;fontStyle=1" parent="1" vertex="1">
          <mxGeometry x="639" y="-215.25" width="90" height="30" as="geometry" />
        </mxCell>
        <mxCell id="wWoEF7Os0rzFuUVPo8dV-68" value="Capture Latency Data" style="text;html=1;align=center;verticalAlign=middle;resizable=0;points=[];autosize=1;strokeColor=none;fillColor=none;" parent="1" vertex="1">
          <mxGeometry x="174" y="-185.25" width="140" height="30" as="geometry" />
        </mxCell>
        <mxCell id="wWoEF7Os0rzFuUVPo8dV-69" value="Capture Failure Data" style="text;html=1;align=center;verticalAlign=middle;resizable=0;points=[];autosize=1;strokeColor=none;fillColor=none;" parent="1" vertex="1">
          <mxGeometry x="179" y="-160.25" width="130" height="30" as="geometry" />
        </mxCell>
        <mxCell id="wWoEF7Os0rzFuUVPo8dV-70" value="Upload Parquet Data" style="text;html=1;align=center;verticalAlign=middle;resizable=0;points=[];autosize=1;strokeColor=none;fillColor=none;" parent="1" vertex="1">
          <mxGeometry x="499" y="-185.25" width="140" height="30" as="geometry" />
        </mxCell>
        <mxCell id="wWoEF7Os0rzFuUVPo8dV-71" value="Oracle HVR Metadata&lt;div&gt;Database&lt;/div&gt;" style="text;html=1;align=center;verticalAlign=middle;resizable=0;points=[];autosize=1;strokeColor=none;fillColor=none;fontStyle=1" parent="1" vertex="1">
          <mxGeometry x="29" y="-105.25" width="140" height="40" as="geometry" />
        </mxCell>
        <mxCell id="8mMr9n-n2Y0m2WbkkIDW-1" value="" style="shape=link;html=1;rounded=0;" edge="1" parent="1">
          <mxGeometry width="100" relative="1" as="geometry">
            <mxPoint x="40" y="440" as="sourcePoint" />
            <mxPoint x="1720" y="440" as="targetPoint" />
          </mxGeometry>
        </mxCell>
        <mxCell id="8mMr9n-n2Y0m2WbkkIDW-2" value="" style="shape=image;verticalLabelPosition=bottom;labelBackgroundColor=default;verticalAlign=top;aspect=fixed;imageAspect=0;image=data:image/png,iVBORw0KGgoAAAANSUhEUgAAAT4AAACfCAMAAABX0UX9AAABIFBMVEX///8AAAD6+vpeXl4FBQU9PT3t7e1mZmaLi4t0dHRTU1NFRUXGxsapqam9vb2Hh4fe3t5Cq73n5+cAM5IuLi7T09OlpaWSkpKXrc97e3sSQJj19fUTQ5gcHBwAN5MVFRUlJSWenp7h6fNLS0tDsL+jzNsASpoeW6EiZaQla6c2NjYDO5ZsbGxiYmKHwtDs9/mmw9kvga40jLKOpMuetNO2yN/m7fVgfbQATJpQfrXP2ulHbqwcVZ8cYKSeuNR0lMCHqssAGoxWi7k0dK11iLuuuth5pMc6e65EYqjO1eeDlcMAKpG6xd05XqTV6e9+t8tOpr8elbK92+Sg09x/x9K/4eY9sb9ju8ja7/IdfKtXlruNt89kpMGw0eA3krQQg6xYGktXAAAGp0lEQVR4nO2c+1/aOhiHSxG2oZuKlykUVHSIosPjhW31tsmZbsczRXRTjrv8///FaZlg3rRN0zYF/ez7/DabpMnT5M2lZZoGAAAAAAAAAAAAAAAAAAAAAAAAAAAAAAAAAAAAAAAAAAAAAAAAGBzm1tbWzG+2d3bqg67OoyO//aZcNcrl8luLcvndtqkPukqPC700s/u2vLe3t2yzt//uAAIDYm7vl21/+zbLlYP8oCv0QPGMbnnzcHfZ9lex2D/53M9KPRo+vxFcrO8cWv5sfSuVyvt+VekRMfPhoziBfnBY2a+s2BxhGuaYKeb8nZQOGpWOwCMEQMLMh4m/pRKaB0crKw30P8LHYrX4r2Tamnl8YvnzTZdJdsm8kCp46j7H4t36KJtkyTyXrGKXkQzJPnX352RA1mens6IFmzlRrRoBVnT6znHj2C9R4h65Zo8wObqVWUgQpoQF8KRp5lmXmkkjeHT1T8VcUW7s9shvlHxSKNGnJUkjUtkAVdTXSN7V3oWhMP4Si17Pbus0l5tQvppToy89SdrwLEAFFkjOufvWh9OXSLjHINOo5qq7yudSNfq0KdoE+fA34pkxrL7EtNt9/pnI5Ypb0tWSRZE+7SVpwdyY5O112m3XmEuh9SVGnPepW0PXOPWLZMFRpU+jISwlOcVxudjBFV7fUNpxny2r8+W+yNUpCMr0ZWk/eipV2HPabhL2w+tLjPL3yX+qGkZxRqpOgVCmj49iLiPIwRjNQisQQV+Bjx2fjZxhvFU/dhXq48LfpH/4y2dIjjV6NYK+xAJ3p48ThpETHbaERaE+na7+Mr5FzZL0KS5iRdGX4u60a3U+6Q1bEBTq0/JzpA0vfUp6QZvM91ZGX+qZDGxf5soqG4ZRjeMARaU+Xoh485aeJ4n58cbqk5uH2Jpx+55Ta+wG3LDJoVSftkCMzImet04D36wjAaPPMZO6wj482pXrVugz4hi7ivVx4c/p5J5pknLVuVRTqK9k6ftSkyokIIH1sdsz59o4S0ekd5HcLs9lnCvVVzYOpcoICtsDMjIMC/Vxq785r/CXHibpHIFPU6uvWK7G8+osEQW3ndlTkmLY47ZPSKp1t4KU6jMiHLacCa4p18ed/bmfXdHN2qRr09Tqi3DY8lpwTb2+MRr+3I7fxgokifv+Tu3gNaWKcKN1LrioXh+/+XXOqdwplcf8wuibzaf9ybNdmhZVKu5KunLhVZ/1ceFv3TE06eZ43aNmjL5CSgbmoRRoUaVTn7fjAmrNfuvjVsT8noHuTVxWfL+Jsufl9oslI/xhy9lFf2OfRZrGNhr+uKWh584ugj7+tKcU4bDlvP/6uA5GZ1Y6M3ufK0TQx7/tKG1LmXKj1hyAPi78JZkrNPCteZYQQZ9jsVQPv+hrXTQHoI87Cb3vDlPEyrzgjXBofUmVH4eeN2X1DT+RgfUiqGeWnv11I1x+yPXPboTWVwj2lYOQWlNa37Sm+0PCmugx0/C3eDe/0gNm4YFqhDdtQb5yEHN5MT4uqU/BgRWLW5Cjp1SuW90eEaaOjLLhe94clD4tRZpkr17om7WCOKBHWffJfSzmz9m4xaUgQYz66M62kNX0xSBtjKIvKS5amktb31dBghj18dsLfZT82+2Mj4XRt/hUBvYQTKop/tj2xm8ECeLUp1FfGTIZiwOfpvZVUUhubHtLohSx6uM2vyzzXlvdHgoPrMLy2tZ3JUoRqz5tjK7+GPy/4Ri8vtq13flEoS9mffyb3x5+gU97CPq+2vauhW/oYtbHrZO7+H/A8RD0Xdn6hGM3dn15ulj5zbxM6wauT7fkLX0Tvx6OW5+Wdgl/Mh+vDV7fV8vekmjNrPVBn0v4kwh82gPQd2X1PZ/O1wd92gg9e5b9blyxPn0j4M/Ea1bf+yacdrW+6NPG2Pg3KbsfZfIo6X3m/slBkNeVl5Y98bxhkRrusir5o6zVXo5J2cepP+++3xh66btc7pLp3SclN9pHhu/b4rbr2FlZaRxtSP/M73rp27VvInKWJ0XgDJ1MU6NPkuuzLwKcmquv2Ual0WicHP+QKuzGshfLR1mPl43GiUW7fWz6i7mEPQe2v3b7r3b7v1vRhz8W+jXsOTGPLHsd2j83RAZvfGeNP5La7Z2/zc1fm99/ePYw/FcuHpjf2x17HX6etzBGA3J2u/nrl+2uQ/P8DAaDUW/d/rQNdvxdXDRf+0wkwMlZq/WqR2vQtQEAAAAAAAAAAAAAAAAAAAAAAAAAAAAAAAAAAAAAAAAAAAAAAAD8WfwP/FirGDD/sOUAAAAASUVORK5CYII=;" vertex="1" parent="1">
          <mxGeometry x="430" y="510" width="120" height="60" as="geometry" />
        </mxCell>
        <mxCell id="8mMr9n-n2Y0m2WbkkIDW-3" style="edgeStyle=orthogonalEdgeStyle;rounded=0;orthogonalLoop=1;jettySize=auto;html=1;" edge="1" parent="1" source="8mMr9n-n2Y0m2WbkkIDW-4" target="8mMr9n-n2Y0m2WbkkIDW-94">
          <mxGeometry relative="1" as="geometry">
            <mxPoint x="750" y="692" as="targetPoint" />
          </mxGeometry>
        </mxCell>
        <mxCell id="8mMr9n-n2Y0m2WbkkIDW-4" value="" style="outlineConnect=0;dashed=0;verticalLabelPosition=bottom;verticalAlign=top;align=center;html=1;shape=mxgraph.aws3.oracle_db_instance;fillColor=#2E73B8;gradientColor=none;" vertex="1" parent="1">
          <mxGeometry x="460" y="658" width="60" height="64.5" as="geometry" />
        </mxCell>
        <mxCell id="8mMr9n-n2Y0m2WbkkIDW-5" style="edgeStyle=orthogonalEdgeStyle;rounded=0;orthogonalLoop=1;jettySize=auto;html=1;entryX=0.5;entryY=0;entryDx=0;entryDy=0;entryPerimeter=0;" edge="1" parent="1" source="8mMr9n-n2Y0m2WbkkIDW-7" target="8mMr9n-n2Y0m2WbkkIDW-4">
          <mxGeometry relative="1" as="geometry" />
        </mxCell>
        <mxCell id="8mMr9n-n2Y0m2WbkkIDW-6" value="Latency&lt;div&gt;Failure&lt;/div&gt;" style="text;html=1;align=center;verticalAlign=middle;resizable=0;points=[];autosize=1;strokeColor=none;fillColor=none;" vertex="1" parent="1">
          <mxGeometry x="430" y="600" width="70" height="40" as="geometry" />
        </mxCell>
        <mxCell id="8mMr9n-n2Y0m2WbkkIDW-7" value="hvr_stats_job" style="text;html=1;align=center;verticalAlign=middle;resizable=0;points=[];autosize=1;strokeColor=none;fillColor=none;" vertex="1" parent="1">
          <mxGeometry x="445" y="563" width="90" height="30" as="geometry" />
        </mxCell>
        <mxCell id="8mMr9n-n2Y0m2WbkkIDW-10" value="hvr_hub.hvr_stats" style="text;html=1;align=center;verticalAlign=middle;resizable=0;points=[];autosize=1;strokeColor=none;fillColor=none;" vertex="1" parent="1">
          <mxGeometry x="430" y="720.5" width="120" height="30" as="geometry" />
        </mxCell>
        <mxCell id="8mMr9n-n2Y0m2WbkkIDW-14" value="HVR HUB" style="text;html=1;align=center;verticalAlign=middle;resizable=0;points=[];autosize=1;strokeColor=none;fillColor=none;fontStyle=1" vertex="1" parent="1">
          <mxGeometry x="450" y="480" width="80" height="30" as="geometry" />
        </mxCell>
        <mxCell id="8mMr9n-n2Y0m2WbkkIDW-17" value="Capture Latency Data" style="text;html=1;align=center;verticalAlign=middle;resizable=0;points=[];autosize=1;strokeColor=none;fillColor=none;" vertex="1" parent="1">
          <mxGeometry x="565" y="664.75" width="140" height="30" as="geometry" />
        </mxCell>
        <mxCell id="8mMr9n-n2Y0m2WbkkIDW-18" value="Capture Failure Data" style="text;html=1;align=center;verticalAlign=middle;resizable=0;points=[];autosize=1;strokeColor=none;fillColor=none;" vertex="1" parent="1">
          <mxGeometry x="570" y="689.75" width="130" height="30" as="geometry" />
        </mxCell>
        <mxCell id="8mMr9n-n2Y0m2WbkkIDW-20" value="AWS HVR Account" style="points=[[0,0],[0.25,0],[0.5,0],[0.75,0],[1,0],[1,0.25],[1,0.5],[1,0.75],[1,1],[0.75,1],[0.5,1],[0.25,1],[0,1],[0,0.75],[0,0.5],[0,0.25]];outlineConnect=0;gradientColor=none;html=1;whiteSpace=wrap;fontSize=12;fontStyle=0;container=1;pointerEvents=0;collapsible=0;recursiveResize=0;shape=mxgraph.aws4.group;grIcon=mxgraph.aws4.group_account;strokeColor=#CD2264;fillColor=none;verticalAlign=top;align=left;spacingLeft=30;fontColor=#CD2264;dashed=0;" vertex="1" parent="1">
          <mxGeometry x="750" y="540" width="600" height="230" as="geometry" />
        </mxCell>
        <mxCell id="8mMr9n-n2Y0m2WbkkIDW-104" style="edgeStyle=orthogonalEdgeStyle;rounded=0;orthogonalLoop=1;jettySize=auto;html=1;" edge="1" parent="8mMr9n-n2Y0m2WbkkIDW-20" source="8mMr9n-n2Y0m2WbkkIDW-22" target="8mMr9n-n2Y0m2WbkkIDW-102">
          <mxGeometry relative="1" as="geometry" />
        </mxCell>
        <mxCell id="8mMr9n-n2Y0m2WbkkIDW-22" value="" style="sketch=0;points=[[0,0,0],[0.25,0,0],[0.5,0,0],[0.75,0,0],[1,0,0],[0,1,0],[0.25,1,0],[0.5,1,0],[0.75,1,0],[1,1,0],[0,0.25,0],[0,0.5,0],[0,0.75,0],[1,0.25,0],[1,0.5,0],[1,0.75,0]];outlineConnect=0;fontColor=#232F3E;fillColor=#7AA116;strokeColor=#ffffff;dashed=0;verticalLabelPosition=bottom;verticalAlign=top;align=center;html=1;fontSize=12;fontStyle=0;aspect=fixed;shape=mxgraph.aws4.resourceIcon;resIcon=mxgraph.aws4.s3;" vertex="1" parent="8mMr9n-n2Y0m2WbkkIDW-20">
          <mxGeometry x="251" y="111" width="78" height="78" as="geometry" />
        </mxCell>
        <mxCell id="8mMr9n-n2Y0m2WbkkIDW-106" style="edgeStyle=orthogonalEdgeStyle;rounded=0;orthogonalLoop=1;jettySize=auto;html=1;" edge="1" parent="8mMr9n-n2Y0m2WbkkIDW-20" source="8mMr9n-n2Y0m2WbkkIDW-94">
          <mxGeometry relative="1" as="geometry">
            <mxPoint x="250" y="150" as="targetPoint" />
          </mxGeometry>
        </mxCell>
        <mxCell id="8mMr9n-n2Y0m2WbkkIDW-94" value="AWS Glue" style="sketch=0;outlineConnect=0;fontColor=#232F3E;gradientColor=none;strokeColor=#ffffff;fillColor=#232F3E;dashed=0;verticalLabelPosition=middle;verticalAlign=bottom;align=center;html=1;whiteSpace=wrap;fontSize=10;fontStyle=1;spacing=3;shape=mxgraph.aws4.productIcon;prIcon=mxgraph.aws4.glue;" vertex="1" parent="8mMr9n-n2Y0m2WbkkIDW-20">
          <mxGeometry x="30" y="100" width="80" height="100" as="geometry" />
        </mxCell>
        <mxCell id="8mMr9n-n2Y0m2WbkkIDW-15" value="Glue ETL" style="text;html=1;align=center;verticalAlign=middle;resizable=0;points=[];autosize=1;strokeColor=none;fillColor=none;fontStyle=1" vertex="1" parent="8mMr9n-n2Y0m2WbkkIDW-20">
          <mxGeometry x="35" y="70" width="70" height="30" as="geometry" />
        </mxCell>
        <mxCell id="8mMr9n-n2Y0m2WbkkIDW-102" value="AWS Glue" style="sketch=0;outlineConnect=0;fontColor=#232F3E;gradientColor=none;strokeColor=#ffffff;fillColor=#232F3E;dashed=0;verticalLabelPosition=middle;verticalAlign=bottom;align=center;html=1;whiteSpace=wrap;fontSize=10;fontStyle=1;spacing=3;shape=mxgraph.aws4.productIcon;prIcon=mxgraph.aws4.glue;" vertex="1" parent="8mMr9n-n2Y0m2WbkkIDW-20">
          <mxGeometry x="460" y="100" width="80" height="100" as="geometry" />
        </mxCell>
        <mxCell id="8mMr9n-n2Y0m2WbkkIDW-108" value="" style="sketch=0;points=[[0,0,0],[0.25,0,0],[0.5,0,0],[0.75,0,0],[1,0,0],[0,1,0],[0.25,1,0],[0.5,1,0],[0.75,1,0],[1,1,0],[0,0.25,0],[0,0.5,0],[0,0.75,0],[1,0.25,0],[1,0.5,0],[1,0.75,0]];outlineConnect=0;fontColor=#232F3E;fillColor=#8C4FFF;strokeColor=#ffffff;dashed=0;verticalLabelPosition=bottom;verticalAlign=top;align=center;html=1;fontSize=12;fontStyle=0;aspect=fixed;shape=mxgraph.aws4.resourceIcon;resIcon=mxgraph.aws4.athena;" vertex="1" parent="8mMr9n-n2Y0m2WbkkIDW-20">
          <mxGeometry x="251" y="16.5" width="78" height="78" as="geometry" />
        </mxCell>
        <mxCell id="8mMr9n-n2Y0m2WbkkIDW-109" value="S3 Bucket" style="text;html=1;align=center;verticalAlign=middle;resizable=0;points=[];autosize=1;strokeColor=none;fillColor=none;fontStyle=1" vertex="1" parent="8mMr9n-n2Y0m2WbkkIDW-20">
          <mxGeometry x="246" y="189" width="80" height="30" as="geometry" />
        </mxCell>
        <mxCell id="8mMr9n-n2Y0m2WbkkIDW-110" value="Athena" style="text;html=1;align=center;verticalAlign=middle;resizable=0;points=[];autosize=1;strokeColor=none;fillColor=none;fontStyle=1" vertex="1" parent="8mMr9n-n2Y0m2WbkkIDW-20">
          <mxGeometry x="256" y="-7" width="60" height="30" as="geometry" />
        </mxCell>
        <mxCell id="8mMr9n-n2Y0m2WbkkIDW-39" value="Oracle HVR Metadata&lt;div&gt;Database&lt;/div&gt;" style="text;html=1;align=center;verticalAlign=middle;resizable=0;points=[];autosize=1;strokeColor=none;fillColor=none;fontStyle=1" vertex="1" parent="1">
          <mxGeometry x="420" y="741.75" width="140" height="40" as="geometry" />
        </mxCell>
        <mxCell id="8mMr9n-n2Y0m2WbkkIDW-40" value="AWS HVR Account" style="points=[[0,0],[0.25,0],[0.5,0],[0.75,0],[1,0],[1,0.25],[1,0.5],[1,0.75],[1,1],[0.75,1],[0.5,1],[0.25,1],[0,1],[0,0.75],[0,0.5],[0,0.25]];outlineConnect=0;gradientColor=none;html=1;whiteSpace=wrap;fontSize=12;fontStyle=0;container=1;pointerEvents=0;collapsible=0;recursiveResize=0;shape=mxgraph.aws4.group;grIcon=mxgraph.aws4.group_account;strokeColor=#CD2264;fillColor=none;verticalAlign=top;align=left;spacingLeft=30;fontColor=#CD2264;dashed=0;" vertex="1" parent="1">
          <mxGeometry x="750" y="860" width="670" height="380" as="geometry" />
        </mxCell>
        <mxCell id="8mMr9n-n2Y0m2WbkkIDW-41" style="edgeStyle=orthogonalEdgeStyle;rounded=0;orthogonalLoop=1;jettySize=auto;html=1;exitX=0.486;exitY=0.979;exitDx=0;exitDy=0;exitPerimeter=0;entryX=0.5;entryY=0;entryDx=0;entryDy=0;entryPerimeter=0;" edge="1" parent="8mMr9n-n2Y0m2WbkkIDW-40" source="8mMr9n-n2Y0m2WbkkIDW-43" target="8mMr9n-n2Y0m2WbkkIDW-49">
          <mxGeometry relative="1" as="geometry">
            <mxPoint x="175" y="193.17000000000002" as="targetPoint" />
            <mxPoint x="60" y="192.996086956522" as="sourcePoint" />
          </mxGeometry>
        </mxCell>
        <mxCell id="8mMr9n-n2Y0m2WbkkIDW-43" value="EC2 Server Hub HVR" style="text;html=1;align=center;verticalAlign=middle;resizable=0;points=[];autosize=1;strokeColor=none;fillColor=none;" vertex="1" parent="8mMr9n-n2Y0m2WbkkIDW-40">
          <mxGeometry x="-1.75" y="149.5" width="140" height="30" as="geometry" />
        </mxCell>
        <mxCell id="8mMr9n-n2Y0m2WbkkIDW-49" value="" style="outlineConnect=0;dashed=0;verticalLabelPosition=bottom;verticalAlign=top;align=center;html=1;shape=mxgraph.aws3.rds;fillColor=#2E73B8;gradientColor=none;" vertex="1" parent="8mMr9n-n2Y0m2WbkkIDW-40">
          <mxGeometry x="30" y="250" width="72" height="81" as="geometry" />
        </mxCell>
        <mxCell id="8mMr9n-n2Y0m2WbkkIDW-50" value="" style="outlineConnect=0;dashed=0;verticalLabelPosition=bottom;verticalAlign=top;align=center;html=1;shape=mxgraph.aws3.ec2;fillColor=#F58534;gradientColor=none;" vertex="1" parent="8mMr9n-n2Y0m2WbkkIDW-40">
          <mxGeometry x="30" y="61.5" width="76.5" height="93" as="geometry" />
        </mxCell>
        <mxCell id="8mMr9n-n2Y0m2WbkkIDW-51" value="HVR RDS Instance" style="text;html=1;align=center;verticalAlign=middle;resizable=0;points=[];autosize=1;strokeColor=none;fillColor=none;fontStyle=0" vertex="1" parent="8mMr9n-n2Y0m2WbkkIDW-40">
          <mxGeometry x="3.25" y="331" width="130" height="30" as="geometry" />
        </mxCell>
        <mxCell id="8mMr9n-n2Y0m2WbkkIDW-52" value="" style="shape=image;verticalLabelPosition=bottom;labelBackgroundColor=default;verticalAlign=top;aspect=fixed;imageAspect=0;image=data:image/png,iVBORw0KGgoAAAANSUhEUgAAAT4AAACfCAMAAABX0UX9AAABIFBMVEX///8AAAD6+vpeXl4FBQU9PT3t7e1mZmaLi4t0dHRTU1NFRUXGxsapqam9vb2Hh4fe3t5Cq73n5+cAM5IuLi7T09OlpaWSkpKXrc97e3sSQJj19fUTQ5gcHBwAN5MVFRUlJSWenp7h6fNLS0tDsL+jzNsASpoeW6EiZaQla6c2NjYDO5ZsbGxiYmKHwtDs9/mmw9kvga40jLKOpMuetNO2yN/m7fVgfbQATJpQfrXP2ulHbqwcVZ8cYKSeuNR0lMCHqssAGoxWi7k0dK11iLuuuth5pMc6e65EYqjO1eeDlcMAKpG6xd05XqTV6e9+t8tOpr8elbK92+Sg09x/x9K/4eY9sb9ju8ja7/IdfKtXlruNt89kpMGw0eA3krQQg6xYGktXAAAGp0lEQVR4nO2c+1/aOhiHSxG2oZuKlykUVHSIosPjhW31tsmZbsczRXRTjrv8///FaZlg3rRN0zYF/ez7/DabpMnT5M2lZZoGAAAAAAAAAAAAAAAAAAAAAAAAAAAAAAAAAAAAAAAAAAAAAAAAGBzm1tbWzG+2d3bqg67OoyO//aZcNcrl8luLcvndtqkPukqPC700s/u2vLe3t2yzt//uAAIDYm7vl21/+zbLlYP8oCv0QPGMbnnzcHfZ9lex2D/53M9KPRo+vxFcrO8cWv5sfSuVyvt+VekRMfPhoziBfnBY2a+s2BxhGuaYKeb8nZQOGpWOwCMEQMLMh4m/pRKaB0crKw30P8LHYrX4r2Tamnl8YvnzTZdJdsm8kCp46j7H4t36KJtkyTyXrGKXkQzJPnX352RA1mens6IFmzlRrRoBVnT6znHj2C9R4h65Zo8wObqVWUgQpoQF8KRp5lmXmkkjeHT1T8VcUW7s9shvlHxSKNGnJUkjUtkAVdTXSN7V3oWhMP4Si17Pbus0l5tQvppToy89SdrwLEAFFkjOufvWh9OXSLjHINOo5qq7yudSNfq0KdoE+fA34pkxrL7EtNt9/pnI5Ypb0tWSRZE+7SVpwdyY5O112m3XmEuh9SVGnPepW0PXOPWLZMFRpU+jISwlOcVxudjBFV7fUNpxny2r8+W+yNUpCMr0ZWk/eipV2HPabhL2w+tLjPL3yX+qGkZxRqpOgVCmj49iLiPIwRjNQisQQV+Bjx2fjZxhvFU/dhXq48LfpH/4y2dIjjV6NYK+xAJ3p48ThpETHbaERaE+na7+Mr5FzZL0KS5iRdGX4u60a3U+6Q1bEBTq0/JzpA0vfUp6QZvM91ZGX+qZDGxf5soqG4ZRjeMARaU+Xoh485aeJ4n58cbqk5uH2Jpx+55Ta+wG3LDJoVSftkCMzImet04D36wjAaPPMZO6wj482pXrVugz4hi7ivVx4c/p5J5pknLVuVRTqK9k6ftSkyokIIH1sdsz59o4S0ekd5HcLs9lnCvVVzYOpcoICtsDMjIMC/Vxq785r/CXHibpHIFPU6uvWK7G8+osEQW3ndlTkmLY47ZPSKp1t4KU6jMiHLacCa4p18ed/bmfXdHN2qRr09Tqi3DY8lpwTb2+MRr+3I7fxgokifv+Tu3gNaWKcKN1LrioXh+/+XXOqdwplcf8wuibzaf9ybNdmhZVKu5KunLhVZ/1ceFv3TE06eZ43aNmjL5CSgbmoRRoUaVTn7fjAmrNfuvjVsT8noHuTVxWfL+Jsufl9oslI/xhy9lFf2OfRZrGNhr+uKWh584ugj7+tKcU4bDlvP/6uA5GZ1Y6M3ufK0TQx7/tKG1LmXKj1hyAPi78JZkrNPCteZYQQZ9jsVQPv+hrXTQHoI87Cb3vDlPEyrzgjXBofUmVH4eeN2X1DT+RgfUiqGeWnv11I1x+yPXPboTWVwj2lYOQWlNa37Sm+0PCmugx0/C3eDe/0gNm4YFqhDdtQb5yEHN5MT4uqU/BgRWLW5Cjp1SuW90eEaaOjLLhe94clD4tRZpkr17om7WCOKBHWffJfSzmz9m4xaUgQYz66M62kNX0xSBtjKIvKS5amktb31dBghj18dsLfZT82+2Mj4XRt/hUBvYQTKop/tj2xm8ECeLUp1FfGTIZiwOfpvZVUUhubHtLohSx6uM2vyzzXlvdHgoPrMLy2tZ3JUoRqz5tjK7+GPy/4Ri8vtq13flEoS9mffyb3x5+gU97CPq+2vauhW/oYtbHrZO7+H/A8RD0Xdn6hGM3dn15ulj5zbxM6wauT7fkLX0Tvx6OW5+Wdgl/Mh+vDV7fV8vekmjNrPVBn0v4kwh82gPQd2X1PZ/O1wd92gg9e5b9blyxPn0j4M/Ea1bf+yacdrW+6NPG2Pg3KbsfZfIo6X3m/slBkNeVl5Y98bxhkRrusir5o6zVXo5J2cepP+++3xh66btc7pLp3SclN9pHhu/b4rbr2FlZaRxtSP/M73rp27VvInKWJ0XgDJ1MU6NPkuuzLwKcmquv2Ual0WicHP+QKuzGshfLR1mPl43GiUW7fWz6i7mEPQe2v3b7r3b7v1vRhz8W+jXsOTGPLHsd2j83RAZvfGeNP5La7Z2/zc1fm99/ePYw/FcuHpjf2x17HX6etzBGA3J2u/nrl+2uQ/P8DAaDUW/d/rQNdvxdXDRf+0wkwMlZq/WqR2vQtQEAAAAAAAAAAAAAAAAAAAAAAAAAAAAAAAAAAAAAAAAAAAAAAAD8WfwP/FirGDD/sOUAAAAASUVORK5CYII=;" vertex="1" parent="8mMr9n-n2Y0m2WbkkIDW-40">
          <mxGeometry x="28.25" y="88.75" width="80" height="40" as="geometry" />
        </mxCell>
        <mxCell id="8mMr9n-n2Y0m2WbkkIDW-64" style="edgeStyle=orthogonalEdgeStyle;rounded=0;orthogonalLoop=1;jettySize=auto;html=1;" edge="1" parent="8mMr9n-n2Y0m2WbkkIDW-40" source="8mMr9n-n2Y0m2WbkkIDW-53" target="8mMr9n-n2Y0m2WbkkIDW-63">
          <mxGeometry relative="1" as="geometry" />
        </mxCell>
        <mxCell id="8mMr9n-n2Y0m2WbkkIDW-53" value="" style="outlineConnect=0;dashed=0;verticalLabelPosition=bottom;verticalAlign=top;align=center;html=1;shape=mxgraph.aws3.ec2;fillColor=#F58534;gradientColor=none;" vertex="1" parent="8mMr9n-n2Y0m2WbkkIDW-40">
          <mxGeometry x="260" y="244" width="76.5" height="93" as="geometry" />
        </mxCell>
        <mxCell id="8mMr9n-n2Y0m2WbkkIDW-55" style="edgeStyle=orthogonalEdgeStyle;rounded=0;orthogonalLoop=1;jettySize=auto;html=1;entryX=0;entryY=0.5;entryDx=0;entryDy=0;entryPerimeter=0;" edge="1" parent="8mMr9n-n2Y0m2WbkkIDW-40" source="8mMr9n-n2Y0m2WbkkIDW-49" target="8mMr9n-n2Y0m2WbkkIDW-53">
          <mxGeometry relative="1" as="geometry" />
        </mxCell>
        <mxCell id="8mMr9n-n2Y0m2WbkkIDW-57" value="EC2 Server for Data Visualization App" style="text;html=1;align=center;verticalAlign=middle;resizable=0;points=[];autosize=1;strokeColor=none;fillColor=none;fontStyle=0" vertex="1" parent="8mMr9n-n2Y0m2WbkkIDW-40">
          <mxGeometry x="183.25" y="331" width="230" height="30" as="geometry" />
        </mxCell>
        <mxCell id="8mMr9n-n2Y0m2WbkkIDW-63" value="" style="outlineConnect=0;dashed=0;verticalLabelPosition=bottom;verticalAlign=top;align=center;html=1;shape=mxgraph.aws3.application_load_balancer;fillColor=#F58534;gradientColor=none;" vertex="1" parent="8mMr9n-n2Y0m2WbkkIDW-40">
          <mxGeometry x="491" y="254.5" width="69" height="72" as="geometry" />
        </mxCell>
        <mxCell id="8mMr9n-n2Y0m2WbkkIDW-66" value="Application Load Balancer" style="text;html=1;align=center;verticalAlign=middle;resizable=0;points=[];autosize=1;strokeColor=none;fillColor=none;fontStyle=0" vertex="1" parent="8mMr9n-n2Y0m2WbkkIDW-40">
          <mxGeometry x="445.5" y="326.5" width="160" height="30" as="geometry" />
        </mxCell>
        <mxCell id="8mMr9n-n2Y0m2WbkkIDW-67" value="" style="outlineConnect=0;dashed=0;verticalLabelPosition=bottom;verticalAlign=top;align=center;html=1;shape=mxgraph.aws3.ec2;fillColor=#F58534;gradientColor=none;" vertex="1" parent="8mMr9n-n2Y0m2WbkkIDW-40">
          <mxGeometry x="138.25" y="62.25" width="76.5" height="93" as="geometry" />
        </mxCell>
        <mxCell id="8mMr9n-n2Y0m2WbkkIDW-68" value="" style="outlineConnect=0;dashed=0;verticalLabelPosition=bottom;verticalAlign=top;align=center;html=1;shape=mxgraph.aws3.ec2;fillColor=#F58534;gradientColor=none;" vertex="1" parent="8mMr9n-n2Y0m2WbkkIDW-40">
          <mxGeometry x="250" y="61.5" width="76.5" height="93" as="geometry" />
        </mxCell>
        <mxCell id="8mMr9n-n2Y0m2WbkkIDW-69" value="" style="shape=image;verticalLabelPosition=bottom;labelBackgroundColor=default;verticalAlign=top;aspect=fixed;imageAspect=0;image=data:image/png,iVBORw0KGgoAAAANSUhEUgAAAT4AAACfCAMAAABX0UX9AAABIFBMVEX///8AAAD6+vpeXl4FBQU9PT3t7e1mZmaLi4t0dHRTU1NFRUXGxsapqam9vb2Hh4fe3t5Cq73n5+cAM5IuLi7T09OlpaWSkpKXrc97e3sSQJj19fUTQ5gcHBwAN5MVFRUlJSWenp7h6fNLS0tDsL+jzNsASpoeW6EiZaQla6c2NjYDO5ZsbGxiYmKHwtDs9/mmw9kvga40jLKOpMuetNO2yN/m7fVgfbQATJpQfrXP2ulHbqwcVZ8cYKSeuNR0lMCHqssAGoxWi7k0dK11iLuuuth5pMc6e65EYqjO1eeDlcMAKpG6xd05XqTV6e9+t8tOpr8elbK92+Sg09x/x9K/4eY9sb9ju8ja7/IdfKtXlruNt89kpMGw0eA3krQQg6xYGktXAAAGp0lEQVR4nO2c+1/aOhiHSxG2oZuKlykUVHSIosPjhW31tsmZbsczRXRTjrv8///FaZlg3rRN0zYF/ez7/DabpMnT5M2lZZoGAAAAAAAAAAAAAAAAAAAAAAAAAAAAAAAAAAAAAAAAAAAAAAAAGBzm1tbWzG+2d3bqg67OoyO//aZcNcrl8luLcvndtqkPukqPC700s/u2vLe3t2yzt//uAAIDYm7vl21/+zbLlYP8oCv0QPGMbnnzcHfZ9lex2D/53M9KPRo+vxFcrO8cWv5sfSuVyvt+VekRMfPhoziBfnBY2a+s2BxhGuaYKeb8nZQOGpWOwCMEQMLMh4m/pRKaB0crKw30P8LHYrX4r2Tamnl8YvnzTZdJdsm8kCp46j7H4t36KJtkyTyXrGKXkQzJPnX352RA1mens6IFmzlRrRoBVnT6znHj2C9R4h65Zo8wObqVWUgQpoQF8KRp5lmXmkkjeHT1T8VcUW7s9shvlHxSKNGnJUkjUtkAVdTXSN7V3oWhMP4Si17Pbus0l5tQvppToy89SdrwLEAFFkjOufvWh9OXSLjHINOo5qq7yudSNfq0KdoE+fA34pkxrL7EtNt9/pnI5Ypb0tWSRZE+7SVpwdyY5O112m3XmEuh9SVGnPepW0PXOPWLZMFRpU+jISwlOcVxudjBFV7fUNpxny2r8+W+yNUpCMr0ZWk/eipV2HPabhL2w+tLjPL3yX+qGkZxRqpOgVCmj49iLiPIwRjNQisQQV+Bjx2fjZxhvFU/dhXq48LfpH/4y2dIjjV6NYK+xAJ3p48ThpETHbaERaE+na7+Mr5FzZL0KS5iRdGX4u60a3U+6Q1bEBTq0/JzpA0vfUp6QZvM91ZGX+qZDGxf5soqG4ZRjeMARaU+Xoh485aeJ4n58cbqk5uH2Jpx+55Ta+wG3LDJoVSftkCMzImet04D36wjAaPPMZO6wj482pXrVugz4hi7ivVx4c/p5J5pknLVuVRTqK9k6ftSkyokIIH1sdsz59o4S0ekd5HcLs9lnCvVVzYOpcoICtsDMjIMC/Vxq785r/CXHibpHIFPU6uvWK7G8+osEQW3ndlTkmLY47ZPSKp1t4KU6jMiHLacCa4p18ed/bmfXdHN2qRr09Tqi3DY8lpwTb2+MRr+3I7fxgokifv+Tu3gNaWKcKN1LrioXh+/+XXOqdwplcf8wuibzaf9ybNdmhZVKu5KunLhVZ/1ceFv3TE06eZ43aNmjL5CSgbmoRRoUaVTn7fjAmrNfuvjVsT8noHuTVxWfL+Jsufl9oslI/xhy9lFf2OfRZrGNhr+uKWh584ugj7+tKcU4bDlvP/6uA5GZ1Y6M3ufK0TQx7/tKG1LmXKj1hyAPi78JZkrNPCteZYQQZ9jsVQPv+hrXTQHoI87Cb3vDlPEyrzgjXBofUmVH4eeN2X1DT+RgfUiqGeWnv11I1x+yPXPboTWVwj2lYOQWlNa37Sm+0PCmugx0/C3eDe/0gNm4YFqhDdtQb5yEHN5MT4uqU/BgRWLW5Cjp1SuW90eEaaOjLLhe94clD4tRZpkr17om7WCOKBHWffJfSzmz9m4xaUgQYz66M62kNX0xSBtjKIvKS5amktb31dBghj18dsLfZT82+2Mj4XRt/hUBvYQTKop/tj2xm8ECeLUp1FfGTIZiwOfpvZVUUhubHtLohSx6uM2vyzzXlvdHgoPrMLy2tZ3JUoRqz5tjK7+GPy/4Ri8vtq13flEoS9mffyb3x5+gU97CPq+2vauhW/oYtbHrZO7+H/A8RD0Xdn6hGM3dn15ulj5zbxM6wauT7fkLX0Tvx6OW5+Wdgl/Mh+vDV7fV8vekmjNrPVBn0v4kwh82gPQd2X1PZ/O1wd92gg9e5b9blyxPn0j4M/Ea1bf+yacdrW+6NPG2Pg3KbsfZfIo6X3m/slBkNeVl5Y98bxhkRrusir5o6zVXo5J2cepP+++3xh66btc7pLp3SclN9pHhu/b4rbr2FlZaRxtSP/M73rp27VvInKWJ0XgDJ1MU6NPkuuzLwKcmquv2Ual0WicHP+QKuzGshfLR1mPl43GiUW7fWz6i7mEPQe2v3b7r3b7v1vRhz8W+jXsOTGPLHsd2j83RAZvfGeNP5La7Z2/zc1fm99/ePYw/FcuHpjf2x17HX6etzBGA3J2u/nrl+2uQ/P8DAaDUW/d/rQNdvxdXDRf+0wkwMlZq/WqR2vQtQEAAAAAAAAAAAAAAAAAAAAAAAAAAAAAAAAAAAAAAAAAAAAAAAD8WfwP/FirGDD/sOUAAAAASUVORK5CYII=;" vertex="1" parent="8mMr9n-n2Y0m2WbkkIDW-40">
          <mxGeometry x="136.5" y="88" width="80" height="40" as="geometry" />
        </mxCell>
        <mxCell id="8mMr9n-n2Y0m2WbkkIDW-86" value="" style="shape=image;verticalLabelPosition=bottom;labelBackgroundColor=default;verticalAlign=top;aspect=fixed;imageAspect=0;image=data:image/png,iVBORw0KGgoAAAANSUhEUgAAAT4AAACfCAMAAABX0UX9AAABIFBMVEX///8AAAD6+vpeXl4FBQU9PT3t7e1mZmaLi4t0dHRTU1NFRUXGxsapqam9vb2Hh4fe3t5Cq73n5+cAM5IuLi7T09OlpaWSkpKXrc97e3sSQJj19fUTQ5gcHBwAN5MVFRUlJSWenp7h6fNLS0tDsL+jzNsASpoeW6EiZaQla6c2NjYDO5ZsbGxiYmKHwtDs9/mmw9kvga40jLKOpMuetNO2yN/m7fVgfbQATJpQfrXP2ulHbqwcVZ8cYKSeuNR0lMCHqssAGoxWi7k0dK11iLuuuth5pMc6e65EYqjO1eeDlcMAKpG6xd05XqTV6e9+t8tOpr8elbK92+Sg09x/x9K/4eY9sb9ju8ja7/IdfKtXlruNt89kpMGw0eA3krQQg6xYGktXAAAGp0lEQVR4nO2c+1/aOhiHSxG2oZuKlykUVHSIosPjhW31tsmZbsczRXRTjrv8///FaZlg3rRN0zYF/ez7/DabpMnT5M2lZZoGAAAAAAAAAAAAAAAAAAAAAAAAAAAAAAAAAAAAAAAAAAAAAAAAGBzm1tbWzG+2d3bqg67OoyO//aZcNcrl8luLcvndtqkPukqPC700s/u2vLe3t2yzt//uAAIDYm7vl21/+zbLlYP8oCv0QPGMbnnzcHfZ9lex2D/53M9KPRo+vxFcrO8cWv5sfSuVyvt+VekRMfPhoziBfnBY2a+s2BxhGuaYKeb8nZQOGpWOwCMEQMLMh4m/pRKaB0crKw30P8LHYrX4r2Tamnl8YvnzTZdJdsm8kCp46j7H4t36KJtkyTyXrGKXkQzJPnX352RA1mens6IFmzlRrRoBVnT6znHj2C9R4h65Zo8wObqVWUgQpoQF8KRp5lmXmkkjeHT1T8VcUW7s9shvlHxSKNGnJUkjUtkAVdTXSN7V3oWhMP4Si17Pbus0l5tQvppToy89SdrwLEAFFkjOufvWh9OXSLjHINOo5qq7yudSNfq0KdoE+fA34pkxrL7EtNt9/pnI5Ypb0tWSRZE+7SVpwdyY5O112m3XmEuh9SVGnPepW0PXOPWLZMFRpU+jISwlOcVxudjBFV7fUNpxny2r8+W+yNUpCMr0ZWk/eipV2HPabhL2w+tLjPL3yX+qGkZxRqpOgVCmj49iLiPIwRjNQisQQV+Bjx2fjZxhvFU/dhXq48LfpH/4y2dIjjV6NYK+xAJ3p48ThpETHbaERaE+na7+Mr5FzZL0KS5iRdGX4u60a3U+6Q1bEBTq0/JzpA0vfUp6QZvM91ZGX+qZDGxf5soqG4ZRjeMARaU+Xoh485aeJ4n58cbqk5uH2Jpx+55Ta+wG3LDJoVSftkCMzImet04D36wjAaPPMZO6wj482pXrVugz4hi7ivVx4c/p5J5pknLVuVRTqK9k6ftSkyokIIH1sdsz59o4S0ekd5HcLs9lnCvVVzYOpcoICtsDMjIMC/Vxq785r/CXHibpHIFPU6uvWK7G8+osEQW3ndlTkmLY47ZPSKp1t4KU6jMiHLacCa4p18ed/bmfXdHN2qRr09Tqi3DY8lpwTb2+MRr+3I7fxgokifv+Tu3gNaWKcKN1LrioXh+/+XXOqdwplcf8wuibzaf9ybNdmhZVKu5KunLhVZ/1ceFv3TE06eZ43aNmjL5CSgbmoRRoUaVTn7fjAmrNfuvjVsT8noHuTVxWfL+Jsufl9oslI/xhy9lFf2OfRZrGNhr+uKWh584ugj7+tKcU4bDlvP/6uA5GZ1Y6M3ufK0TQx7/tKG1LmXKj1hyAPi78JZkrNPCteZYQQZ9jsVQPv+hrXTQHoI87Cb3vDlPEyrzgjXBofUmVH4eeN2X1DT+RgfUiqGeWnv11I1x+yPXPboTWVwj2lYOQWlNa37Sm+0PCmugx0/C3eDe/0gNm4YFqhDdtQb5yEHN5MT4uqU/BgRWLW5Cjp1SuW90eEaaOjLLhe94clD4tRZpkr17om7WCOKBHWffJfSzmz9m4xaUgQYz66M62kNX0xSBtjKIvKS5amktb31dBghj18dsLfZT82+2Mj4XRt/hUBvYQTKop/tj2xm8ECeLUp1FfGTIZiwOfpvZVUUhubHtLohSx6uM2vyzzXlvdHgoPrMLy2tZ3JUoRqz5tjK7+GPy/4Ri8vtq13flEoS9mffyb3x5+gU97CPq+2vauhW/oYtbHrZO7+H/A8RD0Xdn6hGM3dn15ulj5zbxM6wauT7fkLX0Tvx6OW5+Wdgl/Mh+vDV7fV8vekmjNrPVBn0v4kwh82gPQd2X1PZ/O1wd92gg9e5b9blyxPn0j4M/Ea1bf+yacdrW+6NPG2Pg3KbsfZfIo6X3m/slBkNeVl5Y98bxhkRrusir5o6zVXo5J2cepP+++3xh66btc7pLp3SclN9pHhu/b4rbr2FlZaRxtSP/M73rp27VvInKWJ0XgDJ1MU6NPkuuzLwKcmquv2Ual0WicHP+QKuzGshfLR1mPl43GiUW7fWz6i7mEPQe2v3b7r3b7v1vRhz8W+jXsOTGPLHsd2j83RAZvfGeNP5La7Z2/zc1fm99/ePYw/FcuHpjf2x17HX6etzBGA3J2u/nrl+2uQ/P8DAaDUW/d/rQNdvxdXDRf+0wkwMlZq/WqR2vQtQEAAAAAAAAAAAAAAAAAAAAAAAAAAAAAAAAAAAAAAAAAAAAAAAD8WfwP/FirGDD/sOUAAAAASUVORK5CYII=;" vertex="1" parent="8mMr9n-n2Y0m2WbkkIDW-40">
          <mxGeometry x="250" y="88.75" width="80" height="40" as="geometry" />
        </mxCell>
        <mxCell id="8mMr9n-n2Y0m2WbkkIDW-87" value="HVR HUB 2" style="text;html=1;align=center;verticalAlign=middle;resizable=0;points=[];autosize=1;strokeColor=none;fillColor=none;" vertex="1" parent="8mMr9n-n2Y0m2WbkkIDW-40">
          <mxGeometry x="133.25" y="32.25" width="90" height="30" as="geometry" />
        </mxCell>
        <mxCell id="8mMr9n-n2Y0m2WbkkIDW-88" value="HVR HUB 3" style="text;html=1;align=center;verticalAlign=middle;resizable=0;points=[];autosize=1;strokeColor=none;fillColor=none;" vertex="1" parent="8mMr9n-n2Y0m2WbkkIDW-40">
          <mxGeometry x="243.25" y="149.5" width="90" height="30" as="geometry" />
        </mxCell>
        <mxCell id="8mMr9n-n2Y0m2WbkkIDW-92" value="" style="edgeStyle=segmentEdgeStyle;endArrow=classic;html=1;curved=0;rounded=0;endSize=8;startSize=8;entryX=0.5;entryY=0;entryDx=0;entryDy=0;entryPerimeter=0;" edge="1" parent="8mMr9n-n2Y0m2WbkkIDW-40" source="8mMr9n-n2Y0m2WbkkIDW-67" target="8mMr9n-n2Y0m2WbkkIDW-49">
          <mxGeometry width="50" height="50" relative="1" as="geometry">
            <mxPoint x="130" y="250" as="sourcePoint" />
            <mxPoint x="180" y="200" as="targetPoint" />
            <Array as="points">
              <mxPoint x="177" y="210" />
              <mxPoint x="66" y="210" />
            </Array>
          </mxGeometry>
        </mxCell>
        <mxCell id="8mMr9n-n2Y0m2WbkkIDW-93" value="" style="edgeStyle=segmentEdgeStyle;endArrow=classic;html=1;curved=0;rounded=0;endSize=8;startSize=8;exitX=0.501;exitY=0.019;exitDx=0;exitDy=0;exitPerimeter=0;" edge="1" parent="8mMr9n-n2Y0m2WbkkIDW-40" source="8mMr9n-n2Y0m2WbkkIDW-88" target="8mMr9n-n2Y0m2WbkkIDW-49">
          <mxGeometry width="50" height="50" relative="1" as="geometry">
            <mxPoint x="187" y="165" as="sourcePoint" />
            <mxPoint x="76" y="240" as="targetPoint" />
            <Array as="points">
              <mxPoint x="288" y="179" />
              <mxPoint x="187" y="179" />
              <mxPoint x="187" y="220" />
              <mxPoint x="76" y="220" />
            </Array>
          </mxGeometry>
        </mxCell>
        <mxCell id="8mMr9n-n2Y0m2WbkkIDW-58" value="" style="image;aspect=fixed;html=1;points=[];align=center;fontSize=12;image=img/lib/azure2/general/Dashboard2.svg;" vertex="1" parent="1">
          <mxGeometry x="1450" y="1116" width="97.75" height="69" as="geometry" />
        </mxCell>
        <mxCell id="8mMr9n-n2Y0m2WbkkIDW-62" value="Java/Angular JS Viz App" style="text;html=1;align=center;verticalAlign=middle;resizable=0;points=[];autosize=1;strokeColor=none;fillColor=none;fontStyle=0" vertex="1" parent="1">
          <mxGeometry x="1420" y="1080" width="150" height="30" as="geometry" />
        </mxCell>
        <mxCell id="8mMr9n-n2Y0m2WbkkIDW-61" value="EC2 Server for Data Visualization App" style="text;html=1;align=center;verticalAlign=middle;resizable=0;points=[];autosize=1;strokeColor=none;fillColor=none;fontStyle=0" vertex="1" parent="1">
          <mxGeometry x="1390" y="1191" width="230" height="30" as="geometry" />
        </mxCell>
        <mxCell id="8mMr9n-n2Y0m2WbkkIDW-65" style="edgeStyle=orthogonalEdgeStyle;rounded=0;orthogonalLoop=1;jettySize=auto;html=1;" edge="1" parent="1" source="8mMr9n-n2Y0m2WbkkIDW-63" target="8mMr9n-n2Y0m2WbkkIDW-58">
          <mxGeometry relative="1" as="geometry" />
        </mxCell>
        <mxCell id="8mMr9n-n2Y0m2WbkkIDW-101" style="edgeStyle=orthogonalEdgeStyle;rounded=0;orthogonalLoop=1;jettySize=auto;html=1;entryX=0;entryY=0.5;entryDx=0;entryDy=0;" edge="1" parent="1" source="8mMr9n-n2Y0m2WbkkIDW-95" target="8mMr9n-n2Y0m2WbkkIDW-97">
          <mxGeometry relative="1" as="geometry" />
        </mxCell>
        <mxCell id="8mMr9n-n2Y0m2WbkkIDW-95" value="" style="outlineConnect=0;dashed=0;verticalLabelPosition=bottom;verticalAlign=top;align=center;html=1;shape=mxgraph.aws3.redshift;fillColor=#2E73B8;gradientColor=none;" vertex="1" parent="1">
          <mxGeometry x="1390" y="652.5" width="67.5" height="75" as="geometry" />
        </mxCell>
        <mxCell id="8mMr9n-n2Y0m2WbkkIDW-96" value="schema_name.hvr_stats_data" style="text;html=1;align=center;verticalAlign=middle;resizable=0;points=[];autosize=1;strokeColor=none;fillColor=none;" vertex="1" parent="1">
          <mxGeometry x="1333.75" y="730" width="180" height="30" as="geometry" />
        </mxCell>
        <mxCell id="8mMr9n-n2Y0m2WbkkIDW-97" value="" style="shape=image;verticalLabelPosition=bottom;labelBackgroundColor=default;verticalAlign=top;aspect=fixed;imageAspect=0;image=data:image/jpeg,/9j/4AAQSkZJRgABAQAAAQABAAD/2wCEAAkGBwgHBgkIBwgKCgkLDRYPDQwMDRsUFRAWIB0iIiAdHx8kKDQsJCYxJx8fLT0tMTU3Ojo6Iys/RD84QzQ5OjcBCgoKDQwNGg8PGjclHyU3Nzc3Nzc3Nzc3Nzc3Nzc3Nzc3Nzc3Nzc3Nzc3Nzc3Nzc3Nzc3Nzc3Nzc3Nzc3Nzc3N//AABEIAKAAqgMBIgACEQEDEQH/xAAbAAEBAAMAAwAAAAAAAAAAAAAABQMEBgECB//EAEAQAAEEAgAEAwUEBQoHAAAAAAEAAgMEBREGEiExE0FRBxRhcaEzgbHBIjI2dJEVFhdTc5Oy0eHwIzQ1Q1Jicv/EABkBAQADAQEAAAAAAAAAAAAAAAABAwUEAv/EACQRAQACAgAGAgMBAAAAAAAAAAABAgMRBBITITFBUfFhceHR/9oADAMBAAIRAxEAPwD7iiIgIiICIiAiIgIiICIiAiIgIiICIiAiIgIiICIiAiIgIiICIiAiIgIiICIiAiIgIiICIiAiIgIiICIiAiIgIiICIiAiIgIiICIiAiIgIiICIiAiIgwXrUdGnNan34cLC93KNnQXN/0gYP1s/wB1/quqIBGiAR6FROMI428M5AtjYD4XcNHqFfg6c2it43uflz5+rFZtSdaj4aH9IGD9bP8Adf6qpa4io1aVO5L4vg3NeFpnXqN9Vj4Sijdw1ji6NhJhG9tCk+0UAVsYAAB712HyKujHhvmjHETHeff8UzkzVw9SZie0ev6v5vNVMJBHPd8TkkfyDkbvrrf5KQ3j7BlwBdYaPUxLX9pRAo44uIDRbBO/kVXu5vh8VpPeLlKWPR2wOa8n7h3SmKnTraazMzvx9Jvlv1LVi0REa8/anSuV71ZlinM2WF/ZzSp2Z4lxuHkENmVz5yNiGJvM74fJQ+ERPiOHspflhfDAXPmrxSd+UDp/Hos/AWOY+kczbHi3bb3O8V/UtG9dPTrv6KJwY6Ta1p3ETr9lc+TJFa1jVpjf6hkj46xoe1tutdqhx6Oli6fQq/cyFSjT97tTtjg0CHO899tD1WaeCGzEYrETJYz3a9oIXyz2jZGS1nHUw4+BVAa1o7cxAJP5fcpwYacRkitY18+0Z82Thsc2tO/jtp00ntExLZuRkFp7f/MNA+m10eMy1PKRF1OUOc0fpRu6Ob8wvleMw7oA2a3qOdzPFYxw34MY7yvH+EeZI+/Fg8xJT4jhtw7ZE6QMdHvvGemj931XZk4DFaJ6XmHHj4/LW0dXxL67Xtull8N0D2HW9nstpEWPOvTZgREUJEREBERAREQFG4y/ZjI/2X5hWVqZWizJY+elK9zGTN5S5vcL3itFbxM/KvLWbY7Vj3DS4Q/ZnHf2IUf2jf8AL4z96/JdNjKTMdj4KcbnPZCzlDndytXPYSHNR12TyyRiGTxBya6nXxV+PLWvEc8+NypyYrW4fkjzqEL2ltDqGOa4bBtgEfcVUl4QwD2OBx7G782vcCPqs/EWChz1aKCeaSIRSc4Met71rz+akfzErP6S5TISMPdpkHX6KymWvSrXnmsxtXfFbq2tyRaJ1500uHRNercQYSOw6xUiBjrSvdvW+YAb9OgW/wCz3IMkxAx0p5LdNzmOid0Otk/5hXsTiqeIqitRi5Gb2STsuPqSp2Z4Vo5O174x8tW5/XQHRPxPx+KWzY8k2rPaJ1O/z/SuDJjito7zG4mPxP8Ai497I2F8jmta3qXOOgFxecosr58vxuNfcydweI2aYbhgHbmHxGt9fgto8F+8OaMnmb9uJp+zc/QP1K6WerHPTfUcXtjczkJY4g6+arremGd1tvfn093pfNXVq6149/T5LxHejhbJjatg2Xvfz3rZ/wC/IPIf+o8vitLhjHyZPN1a8bdgPD3nXRrR1JXbP9m9EybbfsBm/wBUtBP8V0uEwVDCQllKIhzv15HnbnfMrQvx2KmLlx95Z1OAzZMvNk7QpoiLFbgiIgIiICIiAiIgKLkOJ8dRsurDxrM7P1460fOW/PyVh4JY4NOna6H0K47g7JUcbDYx+Re2rkBO4yGbp4m+x5kFzGcR43JTeBDK6Of+qmbyOPy9VXWr7tStTRXBFDLLHvw5gASPkVN4hz38i3KDHxh0Ngv8QgEuGgNBoHmdoLiLnH3OKHt95hx9NsWtis+Q+KR8+21RwOYizFMysYYpY3Fk0Lu7HDyQUkXOz5u/evTU8BWilEB5ZbM7iIw70Gu69G53IY23DX4gqxMindystVyeTm9CD2QXrtyvRrusW5WxRN1tzuw2swIcAQdg9lyntENz+RJGxshNT9Eyuc484PMNaCqYiTNukY3IV6TK/J0dC9xdvy7oPOYzrMfZipwVZrluRvMIYR1DfUleLGdbUxcN25StRmR/IYAzme09e/w6fVc9FLnP54WnR1qPvfuo5mukdyBux13332VvLZe/isPBZs16/vT52xvY1xLACT1B+QQXkUnibLSYbHssxMY8umaw85IAB31WtRy+SyWRY6lRa3FBxBsyHTpB16tHptBfRQslmrTskcZhazJ7TG800kh1HED236lYWZjJ423BBn69cQzu5GWqxPKHeQcD2QW7NoQPa0sLub0PZbAOxtermNdrmaDrtsdl7ICIiAiIg8Oc1jS5xDWgbJJ6ALRnqYzM12SSxQWonD9GToenwIW89rXtLHtDmuGiCNghc7Jwo2GZ8mIyNrHh526KM8zN/JBOyWPj4YyNC1iJJI47NgRS1S8ua8HzG/8AfZbXFksMOf4ekskCNsz9l3YH9HR/jpbuO4bZXvMvX7s9+1GNRumP6LPkFp8VwxWc/gIJ2NkjkfK1zXdiNBB1K5Xh8GbiDiKaqf8Aguc1jXDsXgHevv8AxWZ3DFkMNeDO3o6nbwu5A9A7urOMx1bF02VabOSNvr1JPqT6oIfs+cwYJ0B6WIp3iZp7h2/P7vwWXj18I4dlilAdJK9jYW+ZdzDt921myPDjLF436Fuahbf9o+Hs/wCYXijw2yO6y7krk+QsR/ZmXo2P4hqDT41a9nBjmy/aARB3z2Nrpa/2Ef8A8D8FhydGHJ0ZqdkExyjR13HmCPvWhhsLZxswdLlrNqJjORkUnRrR+aDSq/t/d/cm/iE4/wD+j1/3uP8ANVY8UyPOTZUSuL5YREY9dBrz+iZzFMzFRleSV0QZK2TmaN9vL6oJPtCaH4OJp7OtRj8V0kUbIYmRRtDWMaGtA8gFo5zFMzFRleSV0QbK2TmaN9vJUUHEYmHKOzebipX4K03vPM5ssPO5zTvlPy/z+K3cpg83kqhrXMtVMbnA9K+jsHpo7VPL4GHIWGW4Z5ad1g0J4TokehHmFrw8NySWYpstlLN4RHmjjcORgd6kDugvMBDGhx2QOp9V5REBERAREQEREBero2Pc1z2Nc5vVpI2R8l7IgIiICIiAiIgIiICIiAiIgIiICIiAiIgIiICIiAiIgIiICIiAiIgIiICIiAiIgIiICIiAiIgIiICIiAiIgIiICIiAiIgIiICIiAiIg//Z;" vertex="1" parent="1">
          <mxGeometry x="1533" y="638.24" width="110" height="103.53" as="geometry" />
        </mxCell>
        <mxCell id="8mMr9n-n2Y0m2WbkkIDW-98" value="" style="image;aspect=fixed;html=1;points=[];align=center;fontSize=12;image=img/lib/azure2/general/Dashboard2.svg;" vertex="1" parent="1">
          <mxGeometry x="1630" y="671.75" width="68" height="48" as="geometry" />
        </mxCell>
        <mxCell id="8mMr9n-n2Y0m2WbkkIDW-99" value="Spotfire/Any Other Dashboard" style="text;html=1;align=center;verticalAlign=middle;resizable=0;points=[];autosize=1;strokeColor=none;fillColor=none;fontStyle=1" vertex="1" parent="1">
          <mxGeometry x="1533" y="634.75" width="180" height="30" as="geometry" />
        </mxCell>
        <mxCell id="8mMr9n-n2Y0m2WbkkIDW-105" style="edgeStyle=orthogonalEdgeStyle;rounded=0;orthogonalLoop=1;jettySize=auto;html=1;" edge="1" parent="1" source="8mMr9n-n2Y0m2WbkkIDW-102" target="8mMr9n-n2Y0m2WbkkIDW-95">
          <mxGeometry relative="1" as="geometry" />
        </mxCell>
        <mxCell id="8mMr9n-n2Y0m2WbkkIDW-107" value="" style="shape=link;html=1;rounded=0;" edge="1" parent="1">
          <mxGeometry width="100" relative="1" as="geometry">
            <mxPoint x="40" y="830" as="sourcePoint" />
            <mxPoint x="1720" y="830" as="targetPoint" />
          </mxGeometry>
        </mxCell>
      </root>
    </mxGraphModel>
  </diagram>
</mxfile>
